<svg id="splitsvg" version="1.1" xmlns="http://www.w3.org/2000/svg" xmlns:xlink="http://www.w3.org/1999/xlink" width="1380" height="876"><g id="svgg"><path id="path0" d="M285.200 115.621 C 282.894 115.831,281.092 116.262,279.600 116.961 C 278.390 117.528,277.176 117.994,276.901 117.996 C 276.178 118.002,273.200 120.791,273.200 121.462 C 273.200 122.395,271.368 125.722,268.993 129.102 C 268.644 129.599,267.671 130.356,266.829 130.785 C 265.210 131.611,264.217 133.006,263.057 136.081 C 262.248 138.229,260.230 140.198,258.435 140.592 C 256.978 140.912,255.815 142.431,255.436 144.509 C 255.026 146.753,253.211 148.583,250.705 149.279 C 248.418 149.914,247.808 150.653,247.399 153.288 C 247.049 155.545,245.567 157.035,243.098 157.612 C 240.602 158.195,239.600 158.969,239.600 160.316 C 239.600 163.583,238.005 165.715,234.730 166.824 C 232.649 167.528,232.629 167.551,232.122 169.782 C 231.338 173.234,228.254 177.805,225.688 179.319 C 224.627 179.945,223.898 180.994,222.459 183.964 C 220.694 187.606,220.492 187.855,218.460 188.884 C 215.491 190.389,215.321 190.575,214.585 193.134 C 213.753 196.027,212.434 197.415,209.899 198.064 C 207.684 198.632,207.031 199.374,206.615 201.800 C 206.135 204.599,203.685 206.763,200.962 206.791 C 199.732 206.804,198.994 207.902,198.419 210.577 C 197.786 213.524,196.393 215.064,194.015 215.444 C 191.878 215.786,191.375 216.320,191.065 218.577 C 190.712 221.152,190.091 222.159,186.621 225.776 C 183.633 228.892,181.200 232.289,181.200 233.346 C 181.200 234.517,178.848 237.094,177.165 237.767 C 175.068 238.606,174.654 239.127,173.596 242.254 C 172.615 245.153,171.899 245.886,169.140 246.820 C 166.885 247.584,166.352 248.254,165.576 251.311 C 164.955 253.752,163.491 255.000,160.524 255.616 C 157.396 256.265,156.530 256.722,156.000 257.999 C 153.415 264.241,148.617 263.144,144.629 255.400 C 142.720 251.694,140.579 249.108,138.439 247.923 C 136.828 247.032,135.664 245.053,135.346 242.666 C 135.204 241.602,134.888 240.666,134.644 240.586 C 134.400 240.505,133.428 240.242,132.484 240.000 C 130.046 239.376,128.514 237.818,127.960 235.400 C 127.170 231.954,127.018 231.737,125.192 231.445 C 121.783 230.900,120.387 229.542,119.784 226.186 C 119.409 224.103,118.666 223.315,116.774 222.996 C 114.343 222.585,112.685 221.248,112.049 219.187 C 110.819 215.200,110.611 214.922,108.632 214.626 C 106.051 214.239,104.550 212.838,103.744 210.068 C 102.857 207.015,102.518 206.828,97.862 206.813 C 93.330 206.798,91.893 207.433,91.451 209.644 C 91.145 211.173,88.849 213.438,87.248 213.789 C 84.961 214.292,84.622 215.147,84.744 220.100 C 84.875 225.404,84.989 225.671,87.405 226.317 C 89.763 226.948,91.437 228.597,92.004 230.851 C 92.596 233.199,93.436 234.134,95.707 234.970 C 97.769 235.728,99.347 237.424,99.832 239.400 C 100.221 240.983,101.853 243.102,102.936 243.431 C 104.470 243.896,106.470 245.669,107.144 247.161 C 108.406 249.958,110.146 252.297,111.509 253.031 C 112.932 253.797,116.752 258.520,117.641 260.610 C 118.231 261.999,121.552 265.600,122.244 265.600 C 123.623 265.600,125.664 269.214,126.073 272.380 C 126.180 273.201,126.592 273.475,128.622 274.071 C 131.723 274.982,132.712 276.064,133.537 279.450 C 134.189 282.122,134.226 282.174,135.747 282.488 C 139.378 283.237,140.920 284.711,141.433 287.918 C 141.780 290.086,142.485 290.641,145.600 291.200 C 147.030 291.457,148.839 292.025,149.620 292.462 C 150.986 293.227,151.195 293.235,155.044 292.661 C 162.789 291.508,166.173 288.799,170.445 280.336 C 171.205 278.830,173.809 276.400,174.662 276.400 C 175.435 276.400,176.608 274.633,177.549 272.052 C 178.543 269.326,180.036 267.837,182.416 267.196 C 184.135 266.733,184.898 265.679,185.359 263.129 C 185.721 261.129,187.461 259.371,189.628 258.815 C 190.603 258.565,191.627 258.284,191.903 258.191 C 192.525 257.983,193.068 256.695,193.406 254.628 C 193.756 252.490,195.764 250.511,197.938 250.163 C 200.251 249.794,200.735 249.299,201.198 246.833 C 201.761 243.834,202.721 242.351,204.772 241.311 C 207.243 240.058,208.159 239.077,208.694 237.111 C 209.564 233.916,212.942 229.155,215.141 228.024 C 216.591 227.278,217.411 226.026,219.034 222.076 C 219.807 220.196,221.000 219.171,223.267 218.435 C 224.781 217.944,225.993 216.565,226.009 215.314 C 226.042 212.648,228.279 210.345,231.481 209.680 C 233.154 209.332,233.812 208.407,234.216 205.828 C 234.543 203.750,236.523 201.757,238.628 201.387 C 241.118 200.949,241.864 200.285,242.086 198.311 C 242.507 194.579,244.055 192.792,247.485 192.079 C 248.535 191.861,249.035 191.526,249.123 190.983 C 249.774 186.979,252.954 181.742,255.970 179.709 C 257.324 178.796,258.326 177.243,259.471 174.282 C 260.364 171.973,261.450 170.849,263.808 169.792 C 265.911 168.849,266.491 168.084,267.189 165.337 C 267.688 163.371,269.712 161.410,271.670 160.995 C 273.629 160.581,274.677 159.413,274.995 157.293 C 275.349 154.933,277.188 152.981,279.428 152.587 C 281.991 152.136,282.566 151.556,283.122 148.866 C 283.806 145.554,285.016 144.188,287.823 143.560 C 289.515 143.181,290.056 142.878,290.186 142.234 C 291.122 137.593,291.297 137.209,293.820 134.252 C 295.222 132.608,296.709 131.156,297.124 131.024 C 298.337 130.639,298.941 127.886,298.838 123.216 C 298.723 118.011,298.679 117.936,295.390 117.328 C 293.916 117.056,292.005 116.466,291.143 116.017 C 290.281 115.568,289.356 115.225,289.088 115.256 C 288.819 115.286,287.070 115.451,285.200 115.621  M -25 0 L -5 0 L -5 20 L -25 20 Z M 405 0 L 425 0 L 425 20 L 405 20 Z" stroke="none" fill="#fcfcfc" fill-rule="evenodd" transform="translate(30,0)"></path><path id="path1" d="M0.000 5.000 L 0.000 10.000 2.000 10.000 C 3.849 10.000,4.000 10.073,4.000 10.967 C 4.000 11.499,4.060 12.174,4.134 12.467 C 4.208 12.760,4.193 12.865,4.101 12.700 C 4.009 12.535,3.048 12.400,1.967 12.400 L 0.000 12.400 0.000 204.000 L 0.000 395.600 1.967 395.600 C 3.048 395.600,4.009 395.465,4.101 395.300 C 4.193 395.135,4.208 395.240,4.134 395.533 C 4.060 395.826,4.000 396.501,4.000 397.033 C 4.000 397.927,3.849 398.000,2.000 398.000 L 0.000 398.000 0.000 403.000 L 0.000 408.000 5.000 408.000 L 10.000 408.000 10.000 406.000 C 10.000 404.044,10.027 404.000,11.200 404.000 C 12.373 404.000,12.400 404.044,12.400 406.000 L 12.400 408.000 22.400 408.000 L 32.400 408.000 32.400 405.833 C 32.400 404.642,32.588 403.604,32.818 403.527 C 33.048 403.451,33.266 402.986,33.303 402.494 C 33.340 402.002,33.593 401.600,33.865 401.600 C 34.137 401.600,34.537 401.285,34.752 400.900 C 35.213 400.076,346.061 399.381,347.897 400.200 C 348.390 400.420,348.795 400.825,348.797 401.100 C 348.799 401.375,349.042 401.600,349.338 401.600 C 349.634 401.600,350.202 401.960,350.600 402.400 C 350.998 402.840,351.170 403.200,350.982 403.200 C 350.794 403.200,350.856 403.416,351.120 403.680 C 351.384 403.944,351.600 405.024,351.600 406.080 L 351.600 408.000 368.600 408.000 L 385.600 408.000 385.600 406.029 C 385.600 403.699,386.578 402.666,389.176 402.250 C 392.230 401.762,393.974 399.500,394.610 395.200 C 395.043 392.278,395.683 391.600,398.009 391.600 L 400.000 391.600 400.000 382.200 L 400.000 372.800 398.000 372.800 C 396.267 372.800,396.000 372.693,396.000 372.000 C 396.000 371.307,396.267 371.200,398.000 371.200 L 400.000 371.200 400.000 204.000 L 400.000 36.800 398.000 36.800 C 396.133 36.800,396.000 36.733,396.000 35.800 C 396.000 34.867,396.133 34.800,398.000 34.800 L 400.000 34.800 400.000 25.600 L 400.000 16.400 398.009 16.400 C 395.582 16.400,395.088 15.790,394.446 12.000 C 393.748 7.881,392.119 6.252,388.000 5.554 C 384.210 4.912,383.600 4.418,383.600 1.991 L 383.600 0.000 379.600 0.000 L 375.600 0.000 375.600 2.000 L 375.600 4.000 373.400 4.000 L 371.200 4.000 371.200 2.000 L 371.200 0.000 361.163 -0.000 L 351.126 -0.000 351.263 2.201 C 351.338 3.411,351.285 4.401,351.143 4.401 C 351.002 4.400,350.774 4.850,350.636 5.400 C 350.498 5.950,350.102 6.400,349.756 6.400 C 349.411 6.400,348.825 6.775,348.454 7.233 L 347.779 8.066 192.157 8.133 L 36.535 8.200 35.576 7.300 C 35.049 6.805,34.407 6.400,34.151 6.400 C 33.458 6.400,33.207 5.431,33.133 2.467 L 33.066 -0.200 32.800 2.200 L 32.534 4.600 32.467 2.300 L 32.400 0.000 16.200 0.000 L 0.000 0.000 0.000 5.000 M380.786 11.300 C 380.795 12.017,380.591 12.400,380.200 12.400 C 379.861 12.400,379.600 12.042,379.600 11.576 C 379.600 11.123,379.459 10.840,379.286 10.947 C 379.113 11.054,378.971 10.808,378.971 10.400 C 378.971 9.992,379.113 9.746,379.286 9.853 C 379.459 9.960,379.606 9.632,379.614 9.124 L 379.628 8.200 380.200 9.200 C 380.514 9.750,380.778 10.695,380.786 11.300 M22.522 11.175 C 22.896 11.809,23.097 12.603,22.968 12.940 C 22.481 14.208,19.200 15.743,19.200 14.703 C 19.200 14.489,18.930 14.418,18.600 14.545 C 18.270 14.671,18.000 14.601,18.000 14.387 C 18.000 14.174,17.773 14.000,17.496 14.000 C 16.746 14.000,15.848 12.392,16.330 11.910 C 16.591 11.649,16.704 11.753,16.663 12.214 C 16.628 12.599,16.870 12.992,17.200 13.087 C 17.573 13.195,17.640 13.136,17.375 12.930 C 16.874 12.540,16.820 10.800,17.309 10.800 C 17.495 10.800,17.537 10.622,17.403 10.405 C 17.263 10.178,17.423 10.111,17.779 10.247 C 18.122 10.379,18.400 10.276,18.400 10.019 C 18.400 9.763,18.568 9.656,18.772 9.783 C 18.977 9.909,19.251 9.841,19.381 9.630 C 19.793 8.964,21.798 9.951,22.522 11.175 M365.764 10.858 C 365.651 11.041,365.811 11.094,366.120 10.975 C 366.444 10.851,366.965 11.192,367.350 11.780 C 367.980 12.741,367.977 12.800,367.309 12.806 C 366.705 12.811,366.689 12.870,367.200 13.200 C 367.690 13.517,367.644 13.589,366.947 13.594 C 366.403 13.598,366.009 13.924,365.860 14.493 C 365.676 15.196,365.522 15.282,365.139 14.899 C 364.755 14.515,364.512 14.536,364.001 14.999 C 363.424 15.522,360.400 13.251,360.400 12.294 C 360.400 11.938,362.272 10.109,362.825 9.925 C 363.594 9.669,366.023 10.440,365.764 10.858 M390.800 19.800 C 391.763 20.351,391.723 20.372,389.700 20.386 C 388.094 20.397,387.600 20.259,387.600 19.800 C 387.600 19.026,389.447 19.026,390.800 19.800 M392.400 32.812 C 392.510 32.854,393.006 32.856,393.501 32.815 C 394.022 32.773,394.510 33.022,394.657 33.405 C 394.812 33.807,395.013 33.903,395.170 33.648 C 395.313 33.417,395.471 34.212,395.521 35.414 C 395.585 36.956,395.463 37.602,395.106 37.606 C 394.573 37.613,392.492 39.232,390.785 40.968 C 390.227 41.535,389.571 42.000,389.328 42.000 C 389.085 42.000,388.782 42.270,388.655 42.600 C 388.030 44.229,385.110 42.344,383.758 39.440 C 382.737 37.249,382.544 36.000,383.224 36.000 C 383.457 36.000,383.536 35.821,383.401 35.602 C 382.392 33.970,389.585 31.740,392.400 32.812 M292.582 104.167 C 294.238 104.859,295.131 106.149,295.516 108.408 C 295.869 110.475,297.020 111.451,299.688 111.944 C 304.184 112.774,304.499 113.712,304.542 126.400 C 304.583 138.477,304.245 139.366,299.303 140.187 C 297.289 140.522,296.355 141.644,295.632 144.600 C 294.974 147.290,293.926 148.329,291.553 148.644 C 289.094 148.970,288.443 149.729,287.742 153.081 C 287.050 156.387,286.374 157.126,283.646 157.557 C 280.942 157.985,280.605 158.393,280.048 161.916 C 279.513 165.302,279.109 166.081,277.429 166.969 C 274.679 168.422,273.417 169.640,272.922 171.322 C 272.502 172.745,271.857 174.240,270.039 178.000 C 269.779 178.539,268.202 179.469,265.633 180.600 C 264.651 181.032,263.678 182.676,262.591 185.741 C 261.881 187.743,259.891 189.169,257.775 189.191 C 256.758 189.202,255.266 191.147,254.934 192.896 C 254.353 195.948,253.277 197.024,250.291 197.533 C 248.390 197.858,246.800 199.710,246.800 201.599 C 246.800 204.597,245.028 206.400,242.083 206.400 C 240.312 206.400,239.337 207.782,239.094 210.635 C 238.784 214.286,237.052 216.000,233.673 216.000 C 232.621 216.000,232.540 216.134,232.125 218.552 C 231.220 223.835,228.778 227.920,226.033 228.743 C 224.302 229.262,222.872 231.124,222.056 233.923 C 221.421 236.103,220.494 237.027,218.323 237.644 C 216.067 238.286,214.474 239.785,214.152 241.570 C 213.589 244.684,211.770 246.400,209.033 246.400 C 207.798 246.400,206.000 248.623,206.000 250.151 C 206.000 253.011,203.868 255.200,201.083 255.200 C 199.619 255.200,198.521 256.720,198.192 259.200 C 197.674 263.109,196.450 264.400,193.262 264.400 C 191.711 264.400,191.332 264.960,190.985 267.762 C 190.475 271.881,188.140 275.606,185.262 276.893 C 183.471 277.695,183.351 277.885,180.607 284.237 C 180.059 285.507,177.971 286.800,176.469 286.800 C 175.295 286.800,173.335 289.376,173.084 291.248 C 172.775 293.554,171.861 294.697,169.902 295.228 C 165.752 296.354,164.653 297.235,164.271 299.742 C 163.689 303.571,162.096 304.344,154.541 304.466 C 147.238 304.583,145.458 303.693,144.916 299.652 C 144.657 297.717,143.316 296.400,141.606 296.400 C 138.577 296.400,137.154 295.033,136.609 291.600 C 136.205 289.055,135.506 288.143,133.723 287.833 C 130.386 287.252,128.800 285.882,128.800 283.580 C 128.800 281.411,126.852 279.200,124.942 279.200 C 122.672 279.200,121.121 277.460,120.571 274.298 C 120.282 272.634,118.478 270.800,117.130 270.800 C 114.757 270.800,113.131 269.169,112.581 266.238 C 112.278 264.622,110.069 262.400,108.766 262.400 C 106.636 262.400,104.437 260.048,104.384 257.713 C 104.355 256.442,102.301 254.507,100.456 254.013 C 98.510 253.491,97.016 252.121,96.609 250.484 C 96.031 248.157,94.262 245.979,92.119 244.955 C 89.975 243.930,89.299 243.031,86.538 237.533 C 86.022 236.506,85.015 235.300,84.300 234.855 C 79.460 231.836,79.022 230.253,79.286 216.756 C 79.577 201.945,80.274 201.374,97.690 201.681 C 108.460 201.870,108.697 201.973,109.516 206.800 L 109.822 208.600 111.839 208.848 C 115.395 209.284,116.800 210.828,116.800 214.298 C 116.800 216.576,117.611 217.445,120.037 217.767 C 122.916 218.149,124.232 219.513,124.605 222.502 C 124.943 225.206,125.873 226.206,128.339 226.516 C 130.682 226.810,131.861 228.003,132.406 230.629 C 132.942 233.208,134.100 234.800,135.442 234.800 C 138.161 234.800,140.107 236.521,140.632 239.393 C 141.013 241.474,142.564 242.996,144.643 243.329 C 146.683 243.655,148.295 245.197,148.633 247.145 C 148.999 249.264,150.681 251.734,151.527 251.397 C 151.897 251.249,153.730 250.829,155.600 250.462 C 159.872 249.624,159.871 249.626,160.193 247.100 C 160.776 242.536,162.823 239.232,165.940 237.827 C 166.816 237.432,167.630 236.700,167.888 236.074 C 171.023 228.498,170.939 228.617,173.770 227.786 C 176.074 227.110,177.109 225.858,177.984 222.685 C 178.589 220.492,179.814 219.339,181.941 218.962 C 183.963 218.603,185.485 217.069,185.820 215.051 C 186.358 211.813,187.306 210.862,190.650 210.204 C 192.444 209.852,193.421 208.544,193.940 205.800 C 194.503 202.827,195.602 201.733,198.400 201.362 C 200.854 201.037,200.971 200.885,201.547 197.284 C 202.103 193.806,202.542 193.012,204.396 192.138 C 207.086 190.870,208.216 189.723,208.755 187.713 C 210.100 182.691,212.969 178.816,215.359 178.791 C 216.449 178.780,218.240 176.259,218.628 174.190 C 219.007 172.170,220.641 170.537,222.640 170.181 C 224.891 169.780,226.280 168.306,226.809 165.755 C 227.332 163.238,228.723 161.843,231.086 161.465 C 233.207 161.125,234.438 159.717,234.841 157.169 C 235.325 154.105,235.989 153.346,238.689 152.766 C 241.704 152.119,242.399 151.496,242.402 149.438 C 242.408 145.372,243.625 143.759,247.057 143.268 L 248.965 142.995 249.482 140.398 C 250.401 135.779,252.620 131.985,255.114 130.769 C 257.571 129.571,258.276 128.691,259.406 125.409 C 260.302 122.808,262.023 121.200,263.912 121.200 C 265.413 121.200,267.435 118.842,267.714 116.767 C 268.051 114.250,269.103 113.101,271.711 112.400 C 274.800 111.569,275.968 110.583,276.448 108.400 C 277.357 104.273,278.615 103.637,285.913 103.616 C 289.622 103.605,291.635 103.771,292.582 104.167 M388.655 365.400 C 388.782 365.730,389.104 366.000,389.371 366.000 C 389.637 366.000,390.237 366.405,390.703 366.900 C 391.169 367.395,392.026 368.160,392.607 368.600 C 393.189 369.040,393.907 369.625,394.204 369.900 C 394.500 370.175,394.936 370.400,395.171 370.400 C 395.776 370.400,395.710 373.489,395.100 373.736 C 394.722 373.889,394.747 374.053,395.200 374.404 C 395.700 374.792,395.654 374.838,394.926 374.679 C 394.445 374.574,393.971 374.699,393.872 374.956 C 393.774 375.213,393.087 375.482,392.347 375.554 C 389.896 375.793,387.806 375.822,387.400 375.621 C 387.180 375.512,386.644 375.368,386.210 375.300 C 385.775 375.233,385.275 374.920,385.099 374.605 C 384.915 374.277,384.500 374.140,384.124 374.285 C 383.685 374.453,383.564 374.381,383.758 374.068 C 383.917 373.811,383.837 373.600,383.581 373.600 C 383.324 373.600,383.218 373.330,383.345 373.000 C 383.471 372.670,383.420 372.400,383.230 372.400 C 382.581 372.400,382.378 371.078,382.821 369.735 C 383.065 368.997,383.411 368.483,383.590 368.594 C 383.908 368.790,384.581 367.671,384.473 367.128 C 384.227 365.897,388.214 364.250,388.655 365.400 M390.800 388.200 C 389.447 388.974,387.600 388.974,387.600 388.200 C 387.600 387.741,388.094 387.603,389.700 387.614 C 391.723 387.628,391.763 387.649,390.800 388.200 M364.400 393.643 C 364.400 393.839,364.760 394.000,365.200 394.000 C 365.640 394.000,366.000 394.180,366.000 394.400 C 366.000 394.620,366.315 394.814,366.700 394.832 C 367.122 394.851,367.201 394.944,366.898 395.066 C 366.621 395.177,366.483 395.410,366.590 395.584 C 366.697 395.757,366.357 396.361,365.834 396.925 C 365.312 397.489,365.000 398.080,365.142 398.239 C 365.284 398.398,365.097 398.419,364.726 398.286 C 364.355 398.154,363.980 398.259,363.893 398.521 C 363.602 399.395,360.992 397.014,360.890 395.782 C 360.839 395.167,360.908 394.775,361.043 394.910 C 361.178 395.045,361.727 394.635,362.263 393.998 C 363.158 392.935,364.400 392.728,364.400 393.643 M21.995 394.533 C 23.069 395.438,23.225 395.739,22.770 396.027 C 22.457 396.225,22.380 396.396,22.600 396.406 C 22.820 396.416,22.689 396.606,22.308 396.827 C 21.928 397.049,21.498 397.208,21.353 397.181 C 21.208 397.154,20.954 397.350,20.789 397.617 C 20.604 397.918,20.282 397.971,19.945 397.757 C 19.645 397.568,19.310 397.395,19.200 397.374 C 17.927 397.127,16.547 396.596,16.335 396.272 C 15.994 395.750,18.262 393.468,18.796 393.797 C 19.018 393.935,19.200 393.881,19.200 393.678 C 19.200 392.964,20.664 393.412,21.995 394.533 M380.800 395.924 C 380.800 396.101,380.536 396.596,380.213 397.024 C 379.650 397.767,379.625 397.754,379.613 396.700 C 379.604 395.983,379.809 395.600,380.200 395.600 C 380.530 395.600,380.800 395.746,380.800 395.924  M -25 0 L -5 0 L -5 20 L -25 20 Z M 405 0 L 425 0 L 425 20 L 405 20 Z" stroke="none" fill="#0c7bfb" fill-rule="evenodd" transform="translate(490,0)"></path><path id="path2" d="M285.845 109.501 C 281.966 110.020,281.854 110.065,280.076 111.817 C 279.079 112.801,276.928 114.274,275.295 115.092 C 272.397 116.544,271.190 117.682,270.626 119.497 C 270.200 120.870,267.425 124.195,265.932 125.122 C 265.024 125.686,263.848 127.261,262.235 130.074 C 260.712 132.732,258.846 135.267,256.991 137.200 C 255.407 138.850,253.648 141.116,253.081 142.236 C 252.515 143.356,251.411 144.796,250.628 145.436 C 249.845 146.076,248.587 147.101,247.831 147.714 C 247.076 148.327,246.073 149.622,245.604 150.592 C 244.428 153.021,243.353 154.303,241.865 155.053 C 239.868 156.058,238.023 158.022,236.944 160.292 C 236.298 161.651,235.385 162.773,234.341 163.492 C 231.241 165.628,230.302 166.563,229.593 168.215 C 228.716 170.263,226.965 172.300,224.783 173.812 C 223.671 174.582,222.735 175.745,221.913 177.378 C 220.168 180.844,218.570 183.083,216.026 185.625 C 214.802 186.849,213.086 189.159,212.214 190.759 C 211.342 192.359,210.082 194.041,209.414 194.498 C 207.119 196.066,205.544 197.805,204.286 200.158 C 203.260 202.078,202.539 202.829,200.400 204.200 C 198.260 205.572,197.540 206.321,196.515 208.242 C 195.241 210.630,194.134 211.833,191.600 213.583 C 189.978 214.704,189.536 215.265,188.067 218.077 C 187.354 219.442,186.178 220.771,184.594 222.002 C 182.841 223.364,181.771 224.627,180.600 226.719 C 179.720 228.290,177.673 231.066,176.051 232.888 C 174.429 234.710,172.336 237.550,171.401 239.200 C 170.158 241.393,169.068 242.693,167.350 244.033 C 165.717 245.306,164.669 246.526,163.915 248.032 C 162.324 251.211,160.755 252.618,157.664 253.637 C 156.199 254.120,154.025 254.943,152.834 255.465 L 150.667 256.415 148.828 254.507 C 147.817 253.457,146.440 251.519,145.768 250.199 C 144.996 248.681,144.043 247.480,143.174 246.928 C 140.562 245.271,139.149 243.872,138.205 242.009 C 137.131 239.890,136.244 238.981,133.425 237.111 C 131.974 236.147,131.082 235.122,130.058 233.244 C 128.903 231.122,128.233 230.416,126.120 229.091 C 124.038 227.785,123.286 227.002,122.000 224.800 C 120.706 222.585,119.966 221.817,117.834 220.480 C 115.848 219.235,115.006 218.404,114.235 216.927 C 112.918 214.405,112.183 213.574,109.934 212.062 C 108.907 211.372,107.647 210.260,107.134 209.589 C 103.422 204.744,102.783 204.400,97.513 204.400 C 84.119 204.401,76.573 220.933,86.135 229.328 C 87.572 230.589,89.267 232.563,89.944 233.763 C 90.616 234.952,92.083 236.707,93.206 237.663 C 94.329 238.618,96.388 241.025,97.781 243.010 C 99.174 244.996,101.699 248.056,103.392 249.810 C 105.085 251.565,106.986 253.900,107.617 255.000 C 108.286 256.166,109.889 257.921,111.461 259.208 C 113.388 260.785,114.516 262.099,115.411 263.808 C 116.308 265.520,117.195 266.551,118.530 267.436 C 121.306 269.276,121.913 269.925,123.314 272.553 C 124.345 274.487,125.056 275.240,127.009 276.465 C 129.271 277.883,129.828 278.531,132.043 282.323 C 132.469 283.051,133.383 283.951,134.074 284.323 C 136.197 285.465,138.416 287.658,139.388 289.575 C 140.567 291.900,141.279 292.526,144.214 293.819 C 145.887 294.556,147.273 295.596,148.853 297.298 L 151.106 299.726 154.794 298.866 C 158.109 298.093,158.693 297.813,160.572 296.095 C 161.721 295.045,163.818 293.578,165.231 292.836 C 168.595 291.069,168.939 290.741,170.248 288.065 C 170.909 286.712,172.491 284.664,174.177 282.978 C 176.098 281.057,177.700 278.913,179.191 276.269 C 180.827 273.366,182.020 271.817,183.904 270.153 C 185.531 268.716,186.832 267.122,187.569 265.663 C 188.820 263.188,189.467 262.490,192.012 260.875 C 193.177 260.136,194.162 258.991,195.168 257.209 C 196.097 255.561,197.279 254.146,198.415 253.321 C 202.050 250.679,202.457 250.265,203.579 248.056 C 204.798 245.656,206.105 244.261,208.449 242.863 C 209.462 242.258,210.304 241.206,211.249 239.362 C 212.135 237.633,213.500 235.879,215.217 234.263 C 216.990 232.595,218.538 230.584,220.017 228.031 C 221.376 225.686,223.140 223.345,224.691 221.831 C 226.200 220.358,227.706 218.375,228.511 216.800 C 229.579 214.711,230.288 213.899,232.120 212.670 C 233.853 211.507,234.782 210.486,235.994 208.411 C 237.455 205.908,239.569 203.600,240.400 203.600 C 241.245 203.600,243.347 201.286,244.405 199.191 C 245.548 196.927,246.182 196.274,249.431 194.025 C 250.511 193.277,251.405 192.170,252.079 190.745 C 253.149 188.486,254.476 186.934,256.908 185.095 C 257.797 184.423,259.121 182.642,260.285 180.550 C 261.367 178.606,263.512 175.673,265.216 173.807 C 266.876 171.991,268.823 169.397,269.544 168.044 C 270.483 166.282,271.480 165.123,273.059 163.956 C 275.073 162.469,276.202 161.049,278.075 157.648 C 278.446 156.973,279.706 155.807,280.875 155.055 C 283.493 153.371,284.419 152.351,285.597 149.855 C 286.178 148.625,287.092 147.523,288.087 146.855 C 291.125 144.817,292.429 143.481,293.256 141.558 C 294.028 139.764,295.634 138.047,298.733 135.703 C 300.520 134.351,301.406 130.119,301.293 123.466 C 301.187 117.231,300.827 116.517,296.906 114.758 C 293.911 113.414,292.911 112.686,291.111 110.537 L 289.800 108.972 285.845 109.501 M291.143 116.017 C 292.005 116.466,293.916 117.056,295.390 117.328 C 298.679 117.936,298.723 118.011,298.838 123.216 C 298.941 127.886,298.337 130.639,297.124 131.024 C 296.709 131.156,295.222 132.608,293.820 134.252 C 291.297 137.209,291.122 137.593,290.186 142.234 C 290.056 142.878,289.515 143.181,287.823 143.560 C 285.016 144.188,283.806 145.554,283.122 148.866 C 282.566 151.556,281.991 152.136,279.428 152.587 C 277.188 152.981,275.349 154.933,274.995 157.293 C 274.677 159.413,273.629 160.581,271.670 160.995 C 269.712 161.410,267.688 163.371,267.189 165.337 C 266.491 168.084,265.911 168.849,263.808 169.792 C 261.450 170.849,260.364 171.973,259.471 174.282 C 258.326 177.243,257.324 178.796,255.970 179.709 C 252.954 181.742,249.774 186.979,249.123 190.983 C 249.035 191.526,248.535 191.861,247.485 192.079 C 244.055 192.792,242.507 194.579,242.086 198.311 C 241.864 200.285,241.118 200.949,238.628 201.387 C 236.523 201.757,234.543 203.750,234.216 205.828 C 233.812 208.407,233.154 209.332,231.481 209.680 C 228.279 210.345,226.042 212.648,226.009 215.314 C 225.993 216.565,224.781 217.944,223.267 218.435 C 221.000 219.171,219.807 220.196,219.034 222.076 C 217.411 226.026,216.591 227.278,215.141 228.024 C 212.942 229.155,209.564 233.916,208.694 237.111 C 208.159 239.077,207.243 240.058,204.772 241.311 C 202.721 242.351,201.761 243.834,201.198 246.833 C 200.735 249.299,200.251 249.794,197.938 250.163 C 195.764 250.511,193.756 252.490,193.406 254.628 C 193.068 256.695,192.525 257.983,191.903 258.191 C 191.627 258.284,190.603 258.565,189.628 258.815 C 187.461 259.371,185.721 261.129,185.359 263.129 C 184.898 265.679,184.135 266.733,182.416 267.196 C 180.036 267.837,178.543 269.326,177.549 272.052 C 176.608 274.633,175.435 276.400,174.662 276.400 C 173.809 276.400,171.205 278.830,170.445 280.336 C 166.173 288.799,162.789 291.508,155.044 292.661 C 151.195 293.235,150.986 293.227,149.620 292.462 C 148.839 292.025,147.030 291.457,145.600 291.200 C 142.485 290.641,141.780 290.086,141.433 287.918 C 140.920 284.711,139.378 283.237,135.747 282.488 C 134.226 282.174,134.189 282.122,133.537 279.450 C 132.712 276.064,131.723 274.982,128.622 274.071 C 126.592 273.475,126.180 273.201,126.073 272.380 C 125.664 269.214,123.623 265.600,122.244 265.600 C 121.552 265.600,118.231 261.999,117.641 260.610 C 116.752 258.520,112.932 253.797,111.509 253.031 C 110.146 252.297,108.406 249.958,107.144 247.161 C 106.470 245.669,104.470 243.896,102.936 243.431 C 101.853 243.102,100.221 240.983,99.832 239.400 C 99.347 237.424,97.769 235.728,95.707 234.970 C 93.436 234.134,92.596 233.199,92.004 230.851 C 91.437 228.597,89.763 226.948,87.405 226.317 C 84.989 225.671,84.875 225.404,84.744 220.100 C 84.622 215.147,84.961 214.292,87.248 213.789 C 88.849 213.438,91.145 211.173,91.451 209.644 C 91.893 207.433,93.330 206.798,97.862 206.813 C 102.518 206.828,102.857 207.015,103.744 210.068 C 104.550 212.838,106.051 214.239,108.632 214.626 C 110.611 214.922,110.819 215.200,112.049 219.187 C 112.685 221.248,114.343 222.585,116.774 222.996 C 118.666 223.315,119.409 224.103,119.784 226.186 C 120.387 229.542,121.783 230.900,125.192 231.445 C 127.018 231.737,127.170 231.954,127.960 235.400 C 128.514 237.818,130.046 239.376,132.484 240.000 C 133.428 240.242,134.400 240.505,134.644 240.586 C 134.888 240.666,135.204 241.602,135.346 242.666 C 135.664 245.053,136.828 247.032,138.439 247.923 C 140.579 249.108,142.720 251.694,144.629 255.400 C 148.617 263.144,153.415 264.241,156.000 257.999 C 156.530 256.722,157.396 256.265,160.524 255.616 C 163.491 255.000,164.955 253.752,165.576 251.311 C 166.352 248.254,166.885 247.584,169.140 246.820 C 171.899 245.886,172.615 245.153,173.596 242.254 C 174.654 239.127,175.068 238.606,177.165 237.767 C 178.848 237.094,181.200 234.517,181.200 233.346 C 181.200 232.289,183.633 228.892,186.621 225.776 C 190.091 222.159,190.712 221.152,191.065 218.577 C 191.375 216.320,191.878 215.786,194.015 215.444 C 196.393 215.064,197.786 213.524,198.419 210.577 C 198.994 207.902,199.732 206.804,200.962 206.791 C 203.685 206.763,206.135 204.599,206.615 201.800 C 207.031 199.374,207.684 198.632,209.899 198.064 C 212.434 197.415,213.753 196.027,214.585 193.134 C 215.321 190.575,215.491 190.389,218.460 188.884 C 220.492 187.855,220.694 187.606,222.459 183.964 C 223.898 180.994,224.627 179.945,225.688 179.319 C 228.254 177.805,231.338 173.234,232.122 169.782 C 232.629 167.551,232.649 167.528,234.730 166.824 C 238.005 165.715,239.600 163.583,239.600 160.316 C 239.600 158.969,240.602 158.195,243.098 157.612 C 245.567 157.035,247.049 155.545,247.399 153.288 C 247.808 150.653,248.418 149.914,250.705 149.279 C 253.211 148.583,255.026 146.753,255.436 144.509 C 255.815 142.431,256.978 140.912,258.435 140.592 C 260.230 140.198,262.248 138.229,263.057 136.081 C 264.217 133.006,265.210 131.611,266.829 130.785 C 267.671 130.356,268.644 129.599,268.993 129.102 C 271.368 125.722,273.200 122.395,273.200 121.462 C 273.200 120.791,276.178 118.002,276.901 117.996 C 277.176 117.994,278.390 117.528,279.600 116.961 C 281.092 116.262,282.894 115.831,285.200 115.621 C 287.070 115.451,288.819 115.286,289.088 115.256 C 289.356 115.225,290.281 115.568,291.143 116.017  M -25 0 L -5 0 L -5 20 L -25 20 Z M 405 0 L 425 0 L 425 20 L 405 20 Z" stroke="none" fill="#b4dcfc" fill-rule="evenodd" transform="translate(950,0)"></path><path id="path3" d="M284.496 105.156 C 280.747 105.433,278.796 106.555,277.762 109.028 C 277.149 110.495,274.616 112.418,272.305 113.172 C 270.637 113.715,268.559 115.967,268.195 117.625 C 267.908 118.929,265.364 122.000,264.570 122.000 C 263.793 122.000,260.895 124.672,260.573 125.685 C 259.916 127.754,257.264 131.589,255.163 133.509 C 252.411 136.023,251.329 137.676,250.438 140.726 C 249.818 142.852,249.641 143.065,247.718 144.000 C 244.821 145.409,244.070 146.228,243.346 148.770 C 242.622 151.316,241.237 153.013,239.623 153.335 C 237.789 153.702,236.185 155.386,235.265 157.911 C 234.336 160.458,233.193 161.755,231.531 162.147 C 229.867 162.540,228.062 164.302,227.541 166.040 C 226.922 168.107,225.042 170.197,222.802 171.308 C 221.275 172.066,220.733 172.693,219.202 175.476 C 218.211 177.278,217.040 179.097,216.600 179.519 C 211.657 184.258,210.122 186.421,209.033 190.185 C 208.624 191.597,208.280 191.934,206.263 192.901 C 203.898 194.035,202.015 196.743,202.004 199.025 C 202.000 199.912,200.076 202.000,199.262 202.000 C 197.313 202.000,194.404 204.908,194.399 206.860 C 194.395 208.303,192.718 210.058,190.375 211.075 C 188.039 212.088,186.400 213.973,186.400 215.646 C 186.400 216.628,184.231 218.920,182.633 219.627 C 180.586 220.532,179.632 221.578,178.282 224.400 C 177.128 226.813,176.228 227.843,173.777 229.558 C 172.060 230.759,169.408 234.797,168.072 238.244 C 167.448 239.856,166.971 240.389,165.357 241.278 C 163.014 242.568,161.823 244.182,161.178 246.947 C 160.540 249.677,159.931 250.278,157.255 250.813 C 156.015 251.061,154.100 251.527,153.000 251.849 L 151.000 252.435 149.715 250.968 C 149.008 250.161,148.220 248.848,147.965 248.050 C 147.350 246.128,146.159 244.860,144.149 243.987 C 142.054 243.078,140.494 241.410,139.986 239.537 C 139.525 237.839,137.389 235.793,135.686 235.419 C 134.151 235.082,132.700 233.458,131.837 231.111 C 131.084 229.064,129.366 227.347,127.669 226.948 C 126.029 226.563,124.413 224.808,123.930 222.886 C 123.397 220.772,121.629 218.917,119.824 218.578 C 118.107 218.256,116.672 216.685,116.027 214.420 C 115.433 212.336,113.417 210.151,111.764 209.800 C 110.234 209.475,109.512 209.074,109.192 208.373 C 106.457 202.388,106.099 202.200,97.400 202.200 C 83.524 202.200,79.209 206.884,79.663 221.455 C 79.871 228.120,80.674 230.036,83.916 231.600 C 85.056 232.150,85.991 232.780,85.994 233.000 C 86.018 234.549,88.684 238.739,91.231 241.231 C 94.105 244.042,97.000 247.679,98.179 249.959 C 98.533 250.643,99.581 251.698,100.508 252.302 C 102.642 253.693,103.875 255.097,105.455 257.937 C 106.383 259.607,107.163 260.433,108.452 261.115 C 110.882 262.400,112.360 263.898,113.275 266.000 C 114.298 268.353,115.049 269.152,117.051 270.017 C 119.139 270.918,120.691 272.571,121.279 274.519 C 121.815 276.294,123.960 278.332,125.647 278.669 C 127.104 278.961,129.040 281.224,129.380 283.033 C 129.696 284.718,131.602 286.652,133.299 287.010 C 135.128 287.396,136.758 289.080,137.270 291.114 C 137.818 293.287,139.399 294.893,141.654 295.568 C 144.089 296.296,145.465 297.380,145.996 298.987 C 147.091 302.307,149.504 303.384,155.006 303.009 C 159.602 302.696,161.192 302.026,162.323 299.928 C 163.559 297.637,164.970 296.384,168.000 294.884 C 170.811 293.494,171.076 293.248,172.200 290.992 C 173.952 287.475,174.753 286.441,176.361 285.616 C 178.375 284.583,182.800 278.510,182.800 276.779 C 182.800 276.167,185.201 273.664,186.642 272.774 C 188.105 271.870,189.691 269.203,190.195 266.800 C 190.575 264.991,191.352 264.140,193.148 263.567 C 195.339 262.868,196.745 261.316,197.460 258.811 C 198.247 256.051,199.076 255.129,201.385 254.448 C 203.458 253.836,204.998 252.252,205.410 250.310 C 205.842 248.272,207.391 246.554,209.787 245.457 C 211.748 244.560,212.104 244.198,213.147 242.044 C 214.705 238.829,215.730 237.594,217.512 236.787 C 219.345 235.957,219.754 235.466,222.179 231.200 C 223.444 228.974,224.923 227.061,226.461 225.661 C 229.150 223.214,230.442 221.174,231.366 217.914 C 231.977 215.758,232.109 215.599,233.678 215.129 C 235.973 214.442,237.773 212.529,238.367 210.146 C 239.058 207.374,239.706 206.575,241.856 205.843 C 244.396 204.977,245.507 203.842,246.222 201.385 C 246.854 199.209,248.342 197.482,250.000 196.999 C 251.818 196.469,253.555 194.842,254.044 193.212 C 254.694 191.042,256.499 188.987,258.723 187.884 C 260.321 187.091,260.838 186.511,262.207 183.976 C 264.359 179.989,264.801 179.402,266.674 178.045 C 268.758 176.536,271.304 172.692,272.398 169.406 C 272.875 167.973,273.464 166.800,273.706 166.800 C 276.084 166.800,279.600 162.860,279.600 160.196 C 279.600 159.085,281.422 157.417,283.287 156.822 C 285.151 156.226,286.676 154.445,287.241 152.205 C 287.749 150.187,289.198 148.689,291.287 148.022 C 292.986 147.479,294.739 145.605,295.063 143.984 C 295.393 142.336,297.504 140.013,299.417 139.193 C 303.238 137.555,304.182 134.170,303.928 123.025 C 303.780 116.534,303.173 114.707,300.769 113.529 C 300.016 113.159,298.500 112.431,297.400 111.911 C 295.796 111.152,295.179 110.555,294.283 108.897 C 292.306 105.240,290.855 104.686,284.496 105.156 M293.375 112.852 C 293.899 113.264,295.488 114.121,296.906 114.758 C 300.827 116.517,301.187 117.231,301.293 123.466 C 301.406 130.119,300.520 134.351,298.733 135.703 C 295.634 138.047,294.028 139.764,293.256 141.558 C 292.429 143.481,291.125 144.817,288.087 146.855 C 287.092 147.523,286.178 148.625,285.597 149.855 C 284.419 152.351,283.493 153.371,280.875 155.055 C 279.706 155.807,278.446 156.973,278.075 157.648 C 276.202 161.049,275.073 162.469,273.059 163.956 C 271.480 165.123,270.483 166.282,269.544 168.044 C 268.823 169.397,266.876 171.991,265.216 173.807 C 263.512 175.673,261.367 178.606,260.285 180.550 C 259.121 182.642,257.797 184.423,256.908 185.095 C 254.476 186.934,253.149 188.486,252.079 190.745 C 251.405 192.170,250.511 193.277,249.431 194.025 C 246.182 196.274,245.548 196.927,244.405 199.191 C 243.347 201.286,241.245 203.600,240.400 203.600 C 239.569 203.600,237.455 205.908,235.994 208.411 C 234.782 210.486,233.853 211.507,232.120 212.670 C 230.288 213.899,229.579 214.711,228.511 216.800 C 227.706 218.375,226.200 220.358,224.691 221.831 C 223.140 223.345,221.376 225.686,220.017 228.031 C 218.538 230.584,216.990 232.595,215.217 234.263 C 213.500 235.879,212.135 237.633,211.249 239.362 C 210.304 241.206,209.462 242.258,208.449 242.863 C 206.105 244.261,204.798 245.656,203.579 248.056 C 202.457 250.265,202.050 250.679,198.415 253.321 C 197.279 254.146,196.097 255.561,195.168 257.209 C 194.162 258.991,193.177 260.136,192.012 260.875 C 189.467 262.490,188.820 263.188,187.569 265.663 C 186.832 267.122,185.531 268.716,183.904 270.153 C 182.020 271.817,180.827 273.366,179.191 276.269 C 177.700 278.913,176.098 281.057,174.177 282.978 C 172.491 284.664,170.909 286.712,170.248 288.065 C 168.939 290.741,168.595 291.069,165.231 292.836 C 163.818 293.578,161.721 295.045,160.572 296.095 C 158.693 297.813,158.109 298.093,154.794 298.866 L 151.106 299.726 148.853 297.298 C 147.273 295.596,145.887 294.556,144.214 293.819 C 141.279 292.526,140.567 291.900,139.388 289.575 C 138.416 287.658,136.197 285.465,134.074 284.323 C 133.383 283.951,132.469 283.051,132.043 282.323 C 129.828 278.531,129.271 277.883,127.009 276.465 C 125.056 275.240,124.345 274.487,123.314 272.553 C 121.913 269.925,121.306 269.276,118.530 267.436 C 117.195 266.551,116.308 265.520,115.411 263.808 C 114.516 262.099,113.388 260.785,111.461 259.208 C 109.889 257.921,108.286 256.166,107.617 255.000 C 106.986 253.900,105.085 251.565,103.392 249.810 C 101.699 248.056,99.174 244.996,97.781 243.010 C 96.388 241.025,94.329 238.618,93.206 237.663 C 92.083 236.707,90.616 234.952,89.944 233.763 C 89.267 232.563,87.572 230.589,86.135 229.328 C 82.729 226.338,82.350 225.518,82.099 220.585 C 81.642 211.629,88.526 204.401,97.513 204.400 C 102.783 204.400,103.422 204.744,107.134 209.589 C 107.647 210.260,108.907 211.372,109.934 212.062 C 112.183 213.574,112.918 214.405,114.235 216.927 C 115.006 218.404,115.848 219.235,117.834 220.480 C 119.966 221.817,120.706 222.585,122.000 224.800 C 123.286 227.002,124.038 227.785,126.120 229.091 C 128.233 230.416,128.903 231.122,130.058 233.244 C 131.082 235.122,131.974 236.147,133.425 237.111 C 136.244 238.981,137.131 239.890,138.205 242.009 C 139.149 243.872,140.562 245.271,143.174 246.928 C 144.043 247.480,144.996 248.681,145.768 250.199 C 146.440 251.519,147.817 253.457,148.828 254.507 L 150.667 256.415 152.834 255.465 C 154.025 254.943,156.199 254.120,157.664 253.637 C 160.755 252.618,162.324 251.211,163.915 248.032 C 164.669 246.526,165.717 245.306,167.350 244.033 C 169.068 242.693,170.158 241.393,171.401 239.200 C 172.336 237.550,174.429 234.710,176.051 232.888 C 177.673 231.066,179.720 228.290,180.600 226.719 C 181.771 224.627,182.841 223.364,184.594 222.002 C 186.178 220.771,187.354 219.442,188.067 218.077 C 189.536 215.265,189.978 214.704,191.600 213.583 C 194.134 211.833,195.241 210.630,196.515 208.242 C 197.540 206.321,198.260 205.572,200.400 204.200 C 202.539 202.829,203.260 202.078,204.286 200.158 C 205.544 197.805,207.119 196.066,209.414 194.498 C 210.082 194.041,211.342 192.359,212.214 190.759 C 213.086 189.159,214.802 186.849,216.026 185.625 C 218.570 183.083,220.168 180.844,221.913 177.378 C 222.735 175.745,223.671 174.582,224.783 173.812 C 226.965 172.300,228.716 170.263,229.593 168.215 C 230.302 166.563,231.241 165.628,234.341 163.492 C 235.385 162.773,236.298 161.651,236.944 160.292 C 238.023 158.022,239.868 156.058,241.865 155.053 C 243.353 154.303,244.428 153.021,245.604 150.592 C 246.073 149.622,247.076 148.327,247.831 147.714 C 248.587 147.101,249.845 146.076,250.628 145.436 C 251.411 144.796,252.515 143.356,253.081 142.236 C 253.648 141.116,255.407 138.850,256.991 137.200 C 258.846 135.267,260.712 132.732,262.235 130.074 C 263.848 127.261,265.024 125.686,265.932 125.122 C 267.425 124.195,270.200 120.870,270.626 119.497 C 271.190 117.682,272.397 116.544,275.295 115.092 C 276.928 114.274,279.079 112.801,280.076 111.817 C 281.854 110.065,281.966 110.020,285.845 109.501 L 289.800 108.972 291.111 110.537 C 291.832 111.398,292.851 112.440,293.375 112.852  M -25 0 L -5 0 L -5 20 L -25 20 Z M 405 0 L 425 0 L 425 20 L 405 20 Z" stroke="none" fill="#5ca4fc" fill-rule="evenodd" transform="translate(30,468)"></path><path id="path4" d="M32.524 2.200 C 32.526 3.520,32.601 4.012,32.690 3.293 C 32.779 2.574,32.777 1.494,32.686 0.893 C 32.595 0.292,32.522 0.880,32.524 2.200 M33.200 2.567 C 33.200 5.400,33.448 6.400,34.151 6.400 C 34.407 6.400,35.049 6.805,35.576 7.300 L 36.535 8.200 192.157 8.133 L 347.779 8.066 348.454 7.233 C 348.825 6.775,349.411 6.400,349.756 6.400 C 350.102 6.400,350.498 5.950,350.636 5.400 C 350.774 4.850,351.002 4.400,351.143 4.401 C 351.285 4.401,351.338 3.411,351.263 2.201 L 351.126 0.000 192.163 0.000 L 33.200 0.000 33.200 2.567 M19.381 9.630 C 19.251 9.841,18.977 9.909,18.772 9.783 C 18.568 9.656,18.400 9.763,18.400 10.019 C 18.400 10.276,18.122 10.379,17.779 10.247 C 17.423 10.111,17.263 10.178,17.403 10.405 C 17.537 10.622,17.495 10.800,17.309 10.800 C 16.820 10.800,16.874 12.540,17.375 12.930 C 17.640 13.136,17.573 13.195,17.200 13.087 C 16.870 12.992,16.628 12.599,16.663 12.214 C 16.704 11.753,16.591 11.649,16.330 11.910 C 15.848 12.392,16.746 14.000,17.496 14.000 C 17.773 14.000,18.000 14.174,18.000 14.387 C 18.000 14.601,18.270 14.671,18.600 14.545 C 18.930 14.418,19.200 14.489,19.200 14.703 C 19.200 15.743,22.481 14.208,22.968 12.940 C 23.517 11.508,20.144 8.395,19.381 9.630 M362.825 9.925 C 362.272 10.109,360.400 11.938,360.400 12.294 C 360.400 13.251,363.424 15.522,364.001 14.999 C 364.512 14.536,364.755 14.515,365.139 14.899 C 365.522 15.282,365.676 15.196,365.860 14.493 C 366.009 13.924,366.403 13.598,366.947 13.594 C 367.644 13.589,367.690 13.517,367.200 13.200 C 366.689 12.870,366.705 12.811,367.309 12.806 C 367.977 12.800,367.980 12.741,367.350 11.780 C 366.965 11.192,366.444 10.851,366.120 10.975 C 365.811 11.094,365.651 11.041,365.764 10.858 C 366.023 10.440,363.594 9.669,362.825 9.925 M386.942 32.886 C 385.183 33.251,382.989 34.934,383.401 35.602 C 383.536 35.821,383.457 36.000,383.224 36.000 C 382.544 36.000,382.737 37.249,383.758 39.440 C 385.110 42.344,388.030 44.229,388.655 42.600 C 388.782 42.270,389.085 42.000,389.328 42.000 C 389.571 42.000,390.227 41.535,390.785 40.968 C 392.492 39.232,394.573 37.613,395.106 37.606 C 395.463 37.602,395.585 36.956,395.521 35.414 C 395.471 34.212,395.313 33.417,395.170 33.648 C 395.013 33.903,394.812 33.807,394.657 33.405 C 394.510 33.022,394.022 32.773,393.501 32.815 C 393.006 32.856,392.510 32.854,392.400 32.812 C 391.713 32.551,388.338 32.597,386.942 32.886 M279.330 104.184 C 277.775 104.860,276.968 106.041,276.448 108.400 C 275.968 110.583,274.800 111.569,271.711 112.400 C 269.103 113.101,268.051 114.250,267.714 116.767 C 267.435 118.842,265.413 121.200,263.912 121.200 C 262.023 121.200,260.302 122.808,259.406 125.409 C 258.276 128.691,257.571 129.571,255.114 130.769 C 252.620 131.985,250.401 135.779,249.482 140.398 L 248.965 142.995 247.057 143.268 C 243.625 143.759,242.408 145.372,242.402 149.438 C 242.399 151.496,241.704 152.119,238.689 152.766 C 235.989 153.346,235.325 154.105,234.841 157.169 C 234.438 159.717,233.207 161.125,231.086 161.465 C 228.723 161.843,227.332 163.238,226.809 165.755 C 226.280 168.306,224.891 169.780,222.640 170.181 C 220.641 170.537,219.007 172.170,218.628 174.190 C 218.240 176.259,216.449 178.780,215.359 178.791 C 212.969 178.816,210.100 182.691,208.755 187.713 C 208.216 189.723,207.086 190.870,204.396 192.138 C 202.542 193.012,202.103 193.806,201.547 197.284 C 200.971 200.885,200.854 201.037,198.400 201.362 C 195.602 201.733,194.503 202.827,193.940 205.800 C 193.421 208.544,192.444 209.852,190.650 210.204 C 187.306 210.862,186.358 211.813,185.820 215.051 C 185.485 217.069,183.963 218.603,181.941 218.962 C 179.814 219.339,178.589 220.492,177.984 222.685 C 177.109 225.858,176.074 227.110,173.770 227.786 C 171.315 228.506,170.802 229.049,169.412 232.400 C 168.818 233.830,168.133 235.484,167.888 236.074 C 167.630 236.700,166.816 237.432,165.940 237.827 C 162.823 239.232,160.776 242.536,160.193 247.100 C 159.871 249.626,159.872 249.624,155.600 250.462 C 153.730 250.829,151.897 251.249,151.527 251.397 C 150.681 251.734,148.999 249.264,148.633 247.145 C 148.295 245.197,146.683 243.655,144.643 243.329 C 142.564 242.996,141.013 241.474,140.632 239.393 C 140.107 236.521,138.161 234.800,135.442 234.800 C 134.100 234.800,132.942 233.208,132.406 230.629 C 131.861 228.003,130.682 226.810,128.339 226.516 C 125.873 226.206,124.943 225.206,124.605 222.502 C 124.232 219.513,122.916 218.149,120.037 217.767 C 117.611 217.445,116.800 216.576,116.800 214.298 C 116.800 210.828,115.395 209.284,111.839 208.848 L 109.822 208.600 109.516 206.800 C 108.697 201.973,108.460 201.870,97.690 201.681 C 80.274 201.374,79.577 201.945,79.286 216.756 C 79.022 230.253,79.460 231.836,84.300 234.855 C 85.015 235.300,86.022 236.506,86.538 237.533 C 89.299 243.031,89.975 243.930,92.119 244.955 C 94.262 245.979,96.031 248.157,96.609 250.484 C 97.016 252.121,98.510 253.491,100.456 254.013 C 102.301 254.507,104.355 256.442,104.384 257.713 C 104.437 260.048,106.636 262.400,108.766 262.400 C 110.069 262.400,112.278 264.622,112.581 266.238 C 113.131 269.169,114.757 270.800,117.130 270.800 C 118.478 270.800,120.282 272.634,120.571 274.298 C 121.121 277.460,122.672 279.200,124.942 279.200 C 126.852 279.200,128.800 281.411,128.800 283.580 C 128.800 285.882,130.386 287.252,133.723 287.833 C 135.506 288.143,136.205 289.055,136.609 291.600 C 137.154 295.033,138.577 296.400,141.606 296.400 C 143.316 296.400,144.657 297.717,144.916 299.652 C 145.458 303.693,147.238 304.583,154.541 304.466 C 162.096 304.344,163.689 303.571,164.271 299.742 C 164.653 297.235,165.752 296.354,169.902 295.228 C 171.861 294.697,172.775 293.554,173.084 291.248 C 173.335 289.376,175.295 286.800,176.469 286.800 C 177.971 286.800,180.059 285.507,180.607 284.237 C 183.351 277.885,183.471 277.695,185.262 276.893 C 188.140 275.606,190.475 271.881,190.985 267.762 C 191.332 264.960,191.711 264.400,193.262 264.400 C 196.450 264.400,197.674 263.109,198.192 259.200 C 198.521 256.720,199.619 255.200,201.083 255.200 C 203.868 255.200,206.000 253.011,206.000 250.151 C 206.000 248.623,207.798 246.400,209.033 246.400 C 211.770 246.400,213.589 244.684,214.152 241.570 C 214.474 239.785,216.067 238.286,218.323 237.644 C 220.494 237.027,221.421 236.103,222.056 233.923 C 222.872 231.124,224.302 229.262,226.033 228.743 C 228.778 227.920,231.220 223.835,232.125 218.552 C 232.540 216.134,232.621 216.000,233.673 216.000 C 237.052 216.000,238.784 214.286,239.094 210.635 C 239.337 207.782,240.312 206.400,242.083 206.400 C 245.028 206.400,246.800 204.597,246.800 201.599 C 246.800 199.710,248.390 197.858,250.291 197.533 C 253.277 197.024,254.353 195.948,254.934 192.896 C 255.266 191.147,256.758 189.202,257.775 189.191 C 259.891 189.169,261.881 187.743,262.591 185.741 C 263.678 182.676,264.651 181.032,265.633 180.600 C 268.202 179.469,269.779 178.539,270.039 178.000 C 271.857 174.240,272.502 172.745,272.922 171.322 C 273.417 169.640,274.679 168.422,277.429 166.969 C 279.109 166.081,279.513 165.302,280.048 161.916 C 280.605 158.393,280.942 157.985,283.646 157.557 C 286.374 157.126,287.050 156.387,287.742 153.081 C 288.443 149.729,289.094 148.970,291.553 148.644 C 293.926 148.329,294.974 147.290,295.632 144.600 C 296.355 141.644,297.289 140.522,299.303 140.187 C 304.245 139.366,304.583 138.477,304.542 126.400 C 304.499 113.712,304.184 112.774,299.688 111.944 C 297.020 111.451,295.869 110.475,295.516 108.408 C 295.131 106.149,294.238 104.859,292.582 104.167 C 290.732 103.394,281.118 103.406,279.330 104.184 M291.964 105.974 C 292.624 106.445,293.668 107.760,294.283 108.897 C 295.179 110.555,295.796 111.152,297.400 111.911 C 298.500 112.431,300.016 113.159,300.769 113.529 C 303.173 114.707,303.780 116.534,303.928 123.025 C 304.182 134.170,303.238 137.555,299.417 139.193 C 297.504 140.013,295.393 142.336,295.063 143.984 C 294.739 145.605,292.986 147.479,291.287 148.022 C 289.198 148.689,287.749 150.187,287.241 152.205 C 286.676 154.445,285.151 156.226,283.287 156.822 C 281.422 157.417,279.600 159.085,279.600 160.196 C 279.600 162.860,276.084 166.800,273.706 166.800 C 273.464 166.800,272.875 167.973,272.398 169.406 C 271.304 172.692,268.758 176.536,266.674 178.045 C 264.801 179.402,264.359 179.989,262.207 183.976 C 260.838 186.511,260.321 187.091,258.723 187.884 C 256.499 188.987,254.694 191.042,254.044 193.212 C 253.555 194.842,251.818 196.469,250.000 196.999 C 248.342 197.482,246.854 199.209,246.222 201.385 C 245.507 203.842,244.396 204.977,241.856 205.843 C 239.706 206.575,239.058 207.374,238.367 210.146 C 237.773 212.529,235.973 214.442,233.678 215.129 C 232.109 215.599,231.977 215.758,231.366 217.914 C 230.442 221.174,229.150 223.214,226.461 225.661 C 224.923 227.061,223.444 228.974,222.179 231.200 C 219.754 235.466,219.345 235.957,217.512 236.787 C 215.730 237.594,214.705 238.829,213.147 242.044 C 212.104 244.198,211.748 244.560,209.787 245.457 C 207.391 246.554,205.842 248.272,205.410 250.310 C 204.998 252.252,203.458 253.836,201.385 254.448 C 199.076 255.129,198.247 256.051,197.460 258.811 C 196.745 261.316,195.339 262.868,193.148 263.567 C 191.352 264.140,190.575 264.991,190.195 266.800 C 189.691 269.203,188.105 271.870,186.642 272.774 C 185.201 273.664,182.800 276.167,182.800 276.779 C 182.800 278.510,178.375 284.583,176.361 285.616 C 174.753 286.441,173.952 287.475,172.200 290.992 C 171.076 293.248,170.811 293.494,168.000 294.884 C 164.970 296.384,163.559 297.637,162.323 299.928 C 161.192 302.026,159.602 302.696,155.006 303.009 C 149.504 303.384,147.091 302.307,145.996 298.987 C 145.465 297.380,144.089 296.296,141.654 295.568 C 139.399 294.893,137.818 293.287,137.270 291.114 C 136.758 289.080,135.128 287.396,133.299 287.010 C 131.602 286.652,129.696 284.718,129.380 283.033 C 129.040 281.224,127.104 278.961,125.647 278.669 C 123.960 278.332,121.815 276.294,121.279 274.519 C 120.691 272.571,119.139 270.918,117.051 270.017 C 115.049 269.152,114.298 268.353,113.275 266.000 C 112.360 263.898,110.882 262.400,108.452 261.115 C 107.163 260.433,106.383 259.607,105.455 257.937 C 103.875 255.097,102.642 253.693,100.508 252.302 C 99.581 251.698,98.533 250.643,98.179 249.959 C 97.000 247.679,94.105 244.042,91.231 241.231 C 88.684 238.739,86.018 234.549,85.994 233.000 C 85.991 232.780,85.056 232.150,83.916 231.600 C 80.674 230.036,79.871 228.120,79.663 221.455 C 79.209 206.884,83.524 202.200,97.400 202.200 C 106.099 202.200,106.457 202.388,109.192 208.373 C 109.512 209.074,110.234 209.475,111.764 209.800 C 113.417 210.151,115.433 212.336,116.027 214.420 C 116.672 216.685,118.107 218.256,119.824 218.578 C 121.629 218.917,123.397 220.772,123.930 222.886 C 124.413 224.808,126.029 226.563,127.669 226.948 C 129.366 227.347,131.084 229.064,131.837 231.111 C 132.700 233.458,134.151 235.082,135.686 235.419 C 137.389 235.793,139.525 237.839,139.986 239.537 C 140.494 241.410,142.054 243.078,144.149 243.987 C 146.159 244.860,147.350 246.128,147.965 248.050 C 148.220 248.848,149.008 250.161,149.715 250.968 L 151.000 252.435 153.000 251.849 C 154.100 251.527,156.015 251.061,157.255 250.813 C 159.931 250.278,160.540 249.677,161.178 246.947 C 161.823 244.182,163.014 242.568,165.357 241.278 C 166.971 240.389,167.448 239.856,168.072 238.244 C 169.408 234.797,172.060 230.759,173.777 229.558 C 176.228 227.843,177.128 226.813,178.282 224.400 C 179.632 221.578,180.586 220.532,182.633 219.627 C 184.231 218.920,186.400 216.628,186.400 215.646 C 186.400 213.973,188.039 212.088,190.375 211.075 C 192.718 210.058,194.395 208.303,194.399 206.860 C 194.404 204.908,197.313 202.000,199.262 202.000 C 200.076 202.000,202.000 199.912,202.004 199.025 C 202.015 196.743,203.898 194.035,206.263 192.901 C 208.280 191.934,208.624 191.597,209.033 190.185 C 210.122 186.421,211.657 184.258,216.600 179.519 C 217.040 179.097,218.211 177.278,219.202 175.476 C 220.733 172.693,221.275 172.066,222.802 171.308 C 225.042 170.197,226.922 168.107,227.541 166.040 C 228.062 164.302,229.867 162.540,231.531 162.147 C 233.193 161.755,234.336 160.458,235.265 157.911 C 236.185 155.386,237.789 153.702,239.623 153.335 C 241.237 153.013,242.622 151.316,243.346 148.770 C 244.070 146.228,244.821 145.409,247.718 144.000 C 249.641 143.065,249.818 142.852,250.438 140.726 C 251.329 137.676,252.411 136.023,255.163 133.509 C 257.264 131.589,259.916 127.754,260.573 125.685 C 260.895 124.672,263.793 122.000,264.570 122.000 C 265.364 122.000,267.908 118.929,268.195 117.625 C 268.559 115.967,270.637 113.715,272.305 113.172 C 274.616 112.418,277.149 110.495,277.762 109.028 C 279.334 105.267,288.271 103.345,291.964 105.974 M385.640 365.828 C 384.968 366.393,384.443 366.978,384.473 367.128 C 384.581 367.671,383.908 368.790,383.590 368.594 C 383.411 368.483,383.065 368.997,382.821 369.735 C 382.378 371.078,382.581 372.400,383.230 372.400 C 383.420 372.400,383.471 372.670,383.345 373.000 C 383.218 373.330,383.324 373.600,383.581 373.600 C 383.837 373.600,383.917 373.811,383.758 374.068 C 383.564 374.381,383.685 374.453,384.124 374.285 C 384.500 374.140,384.915 374.277,385.099 374.605 C 385.275 374.920,385.775 375.233,386.210 375.300 C 386.644 375.368,387.180 375.512,387.400 375.621 C 387.806 375.822,389.896 375.793,392.347 375.554 C 393.087 375.482,393.774 375.213,393.872 374.956 C 393.971 374.699,394.445 374.574,394.926 374.679 C 395.654 374.838,395.700 374.792,395.200 374.404 C 394.747 374.053,394.722 373.889,395.100 373.736 C 395.710 373.489,395.776 370.400,395.171 370.400 C 394.936 370.400,394.500 370.175,394.204 369.900 C 393.907 369.625,393.189 369.040,392.607 368.600 C 392.026 368.160,391.169 367.395,390.703 366.900 C 390.237 366.405,389.637 366.000,389.371 366.000 C 389.104 366.000,388.782 365.730,388.655 365.400 C 388.308 364.494,387.006 364.678,385.640 365.828 M362.263 393.998 C 361.727 394.635,361.178 395.045,361.043 394.910 C 360.908 394.775,360.839 395.167,360.890 395.782 C 360.992 397.014,363.602 399.395,363.893 398.521 C 363.980 398.259,364.355 398.154,364.726 398.286 C 365.097 398.419,365.284 398.398,365.142 398.239 C 365.000 398.080,365.312 397.489,365.834 396.925 C 366.357 396.361,366.697 395.757,366.590 395.584 C 366.483 395.410,366.621 395.177,366.898 395.066 C 367.201 394.944,367.122 394.851,366.700 394.832 C 366.315 394.814,366.000 394.620,366.000 394.400 C 366.000 394.180,365.640 394.000,365.200 394.000 C 364.760 394.000,364.400 393.839,364.400 393.643 C 364.400 392.728,363.158 392.935,362.263 393.998 M19.200 393.678 C 19.200 393.881,19.018 393.935,18.796 393.797 C 18.262 393.468,15.994 395.750,16.335 396.272 C 16.547 396.596,17.927 397.127,19.200 397.374 C 19.310 397.395,19.645 397.568,19.945 397.757 C 20.282 397.971,20.604 397.918,20.789 397.617 C 20.954 397.350,21.208 397.154,21.353 397.181 C 21.498 397.208,21.928 397.049,22.308 396.827 C 22.689 396.606,22.820 396.416,22.600 396.406 C 22.380 396.396,22.457 396.225,22.770 396.027 C 23.225 395.739,23.069 395.438,21.995 394.533 C 20.664 393.412,19.200 392.964,19.200 393.678 M191.072 400.000 C 43.104 400.190,35.124 400.236,34.752 400.900 C 34.537 401.285,34.137 401.600,33.865 401.600 C 33.593 401.600,33.340 402.002,33.303 402.494 C 33.266 402.986,33.048 403.451,32.818 403.527 C 32.588 403.604,32.400 404.642,32.400 405.833 L 32.400 408.000 192.000 408.000 L 351.600 408.000 351.600 406.080 C 351.600 405.024,351.384 403.944,351.120 403.680 C 350.856 403.416,350.794 403.200,350.982 403.200 C 351.170 403.200,350.998 402.840,350.600 402.400 C 350.202 401.960,349.634 401.600,349.338 401.600 C 349.042 401.600,348.799 401.375,348.797 401.100 C 348.789 399.819,346.153 399.801,191.072 400.000  M -25 0 L -5 0 L -5 20 L -25 20 Z M 405 0 L 425 0 L 425 20 L 405 20 Z" stroke="none" fill="#0c8cfc" fill-rule="evenodd" transform="translate(490,468)"></path></g></svg>