<svg id="splitsvg" version="1.1" xmlns="http://www.w3.org/2000/svg" xmlns:xlink="http://www.w3.org/1999/xlink" width="1380" height="230"><g id="svgg"><path id="path0" d="M4.640 9.170 C 4.416 9.814,4.055 10.000,3.029 10.000 C 2.154 10.000,2.000 10.138,2.000 10.920 C 2.000 11.254,1.906 11.321,1.375 11.365 C 0.784 11.414,0.747 11.451,0.698 12.042 C 0.658 12.531,0.577 12.667,0.323 12.667 C 0.005 12.667,0.000 13.087,0.000 42.500 C 0.000 71.913,0.005 72.333,0.323 72.333 C 0.577 72.333,0.658 72.469,0.698 72.958 C 0.747 73.549,0.784 73.586,1.375 73.635 C 1.929 73.681,2.000 73.738,2.003 74.135 C 2.007 74.914,2.190 75.024,3.475 75.020 C 4.619 75.016,4.667 75.032,4.667 75.411 C 4.667 76.414,2.244 76.333,32.421 76.333 C 58.797 76.333,60.609 76.311,60.412 75.992 C 60.304 75.818,61.004 75.149,61.180 75.258 C 61.252 75.303,61.357 75.263,61.415 75.169 C 61.473 75.076,61.811 75.000,62.167 75.000 C 62.917 75.000,63.093 74.822,63.146 74.011 C 63.161 73.774,63.311 73.674,63.708 73.636 C 64.179 73.590,64.270 73.502,64.402 72.967 C 64.532 72.440,64.629 72.343,65.069 72.300 L 65.583 72.250 65.726 70.864 L 65.869 69.478 66.440 69.555 C 66.932 69.621,66.983 69.597,66.805 69.383 C 66.638 69.181,66.652 69.105,66.879 68.978 C 67.163 68.819,67.342 18.075,67.063 17.042 C 66.984 16.751,66.840 16.667,66.422 16.667 L 65.884 16.667 65.784 14.902 C 65.679 13.053,65.531 12.667,64.926 12.667 C 64.640 12.667,64.524 12.528,64.404 12.042 C 64.270 11.497,64.180 11.410,63.708 11.364 C 63.265 11.322,63.167 11.241,63.167 10.920 C 63.167 10.211,62.993 10.000,62.411 10.000 C 62.024 10.000,61.835 9.912,61.782 9.708 C 61.709 9.431,61.704 9.431,61.686 9.708 C 61.650 10.249,60.529 10.103,60.406 9.542 C 60.351 9.290,60.277 8.990,60.241 8.875 C 60.190 8.709,54.496 8.667,32.497 8.667 L 4.816 8.667 4.640 9.170 M3.833 9.500 C 3.712 9.726,3.710 9.833,3.827 9.833 C 3.922 9.833,4.000 9.726,4.000 9.596 C 4.000 9.465,4.131 9.323,4.292 9.282 C 4.561 9.211,4.561 9.204,4.298 9.186 C 4.140 9.175,3.931 9.317,3.833 9.500 M49.071 26.595 C 49.215 26.739,49.333 26.956,49.333 27.077 C 49.333 27.198,49.624 27.413,49.978 27.555 C 50.777 27.875,50.833 28.020,50.833 29.775 C 50.833 31.336,50.683 31.772,50.065 32.007 C 49.829 32.097,49.574 32.384,49.474 32.671 C 49.377 32.949,49.081 33.289,48.816 33.426 C 48.551 33.563,48.230 33.925,48.102 34.231 C 47.950 34.596,47.717 34.826,47.430 34.899 C 47.108 34.979,46.962 35.148,46.886 35.527 C 46.820 35.856,46.610 36.142,46.309 36.314 C 46.043 36.465,45.753 36.827,45.651 37.136 C 45.550 37.440,45.219 37.937,44.915 38.241 C 44.611 38.544,44.240 39.030,44.090 39.320 C 43.940 39.610,43.636 39.917,43.413 40.001 C 43.191 40.086,42.903 40.410,42.773 40.722 C 42.621 41.085,42.385 41.326,42.114 41.394 C 41.828 41.466,41.634 41.678,41.509 42.055 C 41.387 42.425,41.150 42.688,40.795 42.846 C 40.423 43.013,40.224 43.244,40.128 43.623 C 40.032 44.003,39.867 44.194,39.571 44.268 C 39.275 44.342,39.121 44.520,39.052 44.866 C 38.998 45.137,38.692 45.635,38.372 45.971 C 38.052 46.308,37.614 46.861,37.398 47.201 C 37.182 47.541,36.858 47.898,36.678 47.994 C 36.498 48.091,36.253 48.370,36.133 48.615 C 36.014 48.859,35.692 49.183,35.417 49.334 C 35.142 49.485,34.892 49.774,34.863 49.977 C 34.832 50.189,34.531 50.520,34.154 50.758 C 33.745 51.016,33.500 51.297,33.500 51.508 C 33.500 51.716,33.277 51.976,32.917 52.189 C 32.559 52.400,32.333 52.662,32.333 52.866 C 32.333 53.050,32.066 53.467,31.740 53.794 C 31.413 54.120,31.005 54.664,30.832 55.002 C 30.660 55.339,30.332 55.738,30.104 55.888 C 29.875 56.038,29.589 56.365,29.469 56.614 C 29.349 56.864,28.987 57.207,28.665 57.376 C 28.343 57.545,27.953 57.905,27.798 58.175 C 27.309 59.027,25.000 58.815,25.000 57.918 C 25.000 57.794,24.737 57.606,24.417 57.500 C 24.017 57.368,23.800 57.177,23.729 56.893 C 23.672 56.665,23.344 56.300,23.000 56.083 C 22.648 55.861,22.328 55.503,22.268 55.264 C 22.200 54.991,22.007 54.799,21.730 54.730 C 21.451 54.660,21.216 54.425,21.067 54.071 C 20.941 53.768,20.631 53.421,20.378 53.300 C 20.126 53.179,19.821 52.874,19.700 52.623 C 19.580 52.371,19.279 52.060,19.032 51.931 C 18.785 51.802,18.440 51.427,18.265 51.098 C 18.091 50.769,17.848 50.500,17.726 50.500 C 17.604 50.500,17.307 50.188,17.066 49.807 C 16.826 49.425,16.416 48.934,16.156 48.715 C 15.895 48.496,15.594 48.073,15.486 47.774 C 15.378 47.475,15.084 47.113,14.833 46.969 C 13.832 46.394,14.054 43.284,15.150 42.548 C 16.241 41.814,18.850 42.045,19.063 42.894 C 19.125 43.143,19.327 43.337,19.593 43.404 C 19.875 43.475,20.106 43.712,20.266 44.095 C 20.402 44.422,20.688 44.746,20.917 44.833 C 21.141 44.919,21.430 45.242,21.561 45.555 C 21.715 45.924,21.948 46.159,22.230 46.230 C 22.507 46.299,22.700 46.491,22.768 46.764 C 22.829 47.006,23.152 47.364,23.521 47.596 C 23.876 47.821,24.167 48.118,24.167 48.258 C 24.167 48.397,24.415 48.658,24.718 48.837 C 25.021 49.015,25.396 49.427,25.550 49.751 C 25.799 50.272,25.884 50.327,26.291 50.229 C 27.244 49.998,27.500 49.841,27.500 49.485 C 27.500 49.289,27.744 48.893,28.042 48.606 C 28.340 48.318,28.726 47.802,28.901 47.458 C 29.076 47.114,29.461 46.648,29.757 46.423 C 30.052 46.197,30.338 45.841,30.392 45.632 C 30.446 45.422,30.718 45.122,30.997 44.965 C 31.275 44.809,31.574 44.493,31.661 44.265 C 31.748 44.036,32.039 43.735,32.308 43.596 C 32.579 43.456,32.876 43.117,32.974 42.837 C 33.075 42.548,33.329 42.263,33.570 42.172 C 33.810 42.080,34.094 41.765,34.231 41.436 C 34.364 41.119,34.630 40.775,34.824 40.672 C 35.018 40.568,35.295 40.187,35.440 39.824 C 35.585 39.462,35.918 38.985,36.180 38.764 C 36.442 38.544,36.796 38.113,36.966 37.807 C 37.136 37.500,37.468 37.156,37.705 37.040 C 37.942 36.925,38.213 36.606,38.309 36.331 C 38.410 36.041,38.665 35.762,38.916 35.667 C 39.168 35.571,39.449 35.263,39.587 34.933 C 39.734 34.581,39.994 34.307,40.268 34.216 C 40.566 34.117,40.772 33.880,40.897 33.495 C 41.009 33.151,41.260 32.836,41.524 32.710 C 41.768 32.593,42.014 32.301,42.076 32.054 C 42.137 31.809,42.520 31.239,42.927 30.787 C 43.334 30.334,43.667 29.857,43.667 29.726 C 43.667 29.596,43.923 29.337,44.237 29.152 C 44.550 28.967,44.883 28.598,44.976 28.332 C 45.087 28.013,45.348 27.762,45.740 27.598 C 46.078 27.457,46.402 27.173,46.490 26.942 C 46.738 26.291,48.526 26.050,49.071 26.595  M -25 0 L -5 0 L -5 20 L -25 20 Z M 405 0 L 425 0 L 425 20 L 405 20 Z" stroke="none" fill="#0c7cfa" fill-rule="evenodd" transform="translate(30,0)"></path><path id="path1" d="M47.583 27.479 C 46.626 27.803,45.667 28.431,45.494 28.848 C 45.390 29.098,45.089 29.496,44.824 29.732 C 44.560 29.967,44.192 30.457,44.007 30.819 C 43.822 31.181,43.528 31.579,43.352 31.701 C 43.177 31.824,42.870 32.201,42.671 32.538 C 42.472 32.876,42.164 33.198,41.986 33.254 C 41.808 33.311,41.556 33.564,41.425 33.818 C 41.294 34.071,40.919 34.482,40.593 34.731 C 40.267 34.980,40.000 35.272,40.000 35.380 C 40.000 35.488,39.719 35.852,39.375 36.190 C 38.634 36.919,37.871 37.856,37.437 38.569 C 36.951 39.370,35.337 41.265,34.042 42.557 C 33.652 42.946,33.333 43.328,33.333 43.407 C 33.333 43.486,33.052 43.837,32.708 44.187 C 31.852 45.057,31.056 45.981,30.617 46.611 C 29.746 47.862,29.161 48.616,28.698 49.083 C 28.425 49.358,28.119 49.748,28.017 49.949 C 27.915 50.151,27.378 50.533,26.825 50.798 L 25.819 51.281 25.421 50.808 C 25.202 50.548,24.975 50.184,24.916 49.999 C 24.858 49.814,24.590 49.549,24.322 49.411 C 24.053 49.272,23.833 49.078,23.833 48.981 C 23.833 48.811,23.097 47.997,21.417 46.310 C 21.325 46.218,20.875 45.739,20.417 45.246 C 19.958 44.753,19.483 44.252,19.361 44.133 C 19.238 44.014,18.870 43.635,18.542 43.292 C 18.052 42.778,17.829 42.667,17.295 42.667 C 15.273 42.667,14.016 45.157,15.375 46.470 C 15.673 46.758,16.329 47.490,16.833 48.098 C 17.337 48.706,18.069 49.589,18.459 50.060 C 19.606 51.446,20.211 52.126,20.875 52.776 C 21.219 53.113,21.500 53.491,21.500 53.616 C 21.500 53.742,21.751 53.992,22.057 54.173 C 22.363 54.354,22.697 54.685,22.799 54.909 C 22.901 55.133,23.180 55.443,23.418 55.599 C 23.656 55.755,23.958 56.091,24.090 56.346 C 24.222 56.601,24.499 56.861,24.707 56.924 C 24.914 56.986,25.283 57.224,25.527 57.453 C 25.997 57.892,26.834 57.806,27.500 57.249 C 27.637 57.134,27.994 56.917,28.292 56.766 C 28.590 56.615,28.833 56.396,28.833 56.280 C 28.833 56.164,29.208 55.625,29.667 55.083 C 30.125 54.541,30.500 54.035,30.500 53.959 C 30.500 53.883,30.798 53.504,31.162 53.118 C 31.526 52.732,32.088 52.117,32.412 51.750 C 32.736 51.383,33.340 50.708,33.754 50.250 C 35.485 48.337,37.000 46.496,37.000 46.307 C 37.000 46.158,38.210 44.693,39.044 43.833 C 39.354 43.512,39.736 43.044,39.892 42.792 C 40.047 42.540,40.284 42.333,40.417 42.333 C 40.551 42.333,40.810 42.039,40.994 41.679 C 41.177 41.319,41.480 40.976,41.667 40.917 C 41.853 40.858,42.158 40.511,42.344 40.146 C 42.530 39.782,42.787 39.443,42.917 39.394 C 43.046 39.344,43.381 38.898,43.661 38.402 C 43.941 37.906,44.234 37.500,44.313 37.500 C 44.391 37.500,44.663 37.187,44.916 36.805 C 45.169 36.422,45.588 35.931,45.846 35.714 C 46.104 35.497,46.360 35.177,46.415 35.005 C 46.470 34.832,46.774 34.538,47.091 34.351 C 47.407 34.164,47.667 33.898,47.667 33.761 C 47.667 33.623,47.899 33.339,48.183 33.130 C 48.467 32.921,48.841 32.474,49.014 32.137 C 49.187 31.800,49.474 31.478,49.654 31.421 C 50.676 31.096,50.490 28.492,49.410 28.014 C 49.001 27.833,48.667 27.606,48.667 27.509 C 48.667 27.317,48.110 27.301,47.583 27.479  M -25 0 L -5 0 L -5 20 L -25 20 Z M 405 0 L 425 0 L 425 20 L 405 20 Z" stroke="none" fill="#f7fafc" fill-rule="evenodd" transform="translate(490,0)"></path><path id="path2" d="M46.864 26.447 C 46.744 26.496,46.575 26.718,46.490 26.942 C 46.402 27.173,46.078 27.457,45.740 27.598 C 45.348 27.762,45.087 28.013,44.976 28.332 C 44.883 28.598,44.550 28.967,44.237 29.152 C 43.923 29.337,43.667 29.596,43.667 29.726 C 43.667 29.857,43.334 30.334,42.927 30.787 C 42.520 31.239,42.137 31.809,42.076 32.054 C 42.014 32.301,41.768 32.593,41.524 32.710 C 41.260 32.836,41.009 33.151,40.897 33.495 C 40.772 33.880,40.566 34.117,40.268 34.216 C 39.994 34.307,39.734 34.581,39.587 34.933 C 39.449 35.263,39.168 35.571,38.916 35.667 C 38.665 35.762,38.410 36.041,38.309 36.331 C 38.213 36.606,37.942 36.925,37.705 37.040 C 37.468 37.156,37.136 37.500,36.966 37.807 C 36.796 38.113,36.442 38.544,36.180 38.764 C 35.918 38.985,35.585 39.462,35.440 39.824 C 35.295 40.187,35.018 40.568,34.824 40.672 C 34.630 40.775,34.364 41.119,34.231 41.436 C 34.094 41.765,33.810 42.080,33.570 42.172 C 33.329 42.263,33.075 42.548,32.974 42.837 C 32.876 43.117,32.579 43.456,32.308 43.596 C 32.039 43.735,31.748 44.036,31.661 44.265 C 31.574 44.493,31.275 44.809,30.997 44.965 C 30.718 45.122,30.446 45.422,30.392 45.632 C 30.338 45.841,30.052 46.197,29.757 46.423 C 29.461 46.648,29.076 47.114,28.901 47.458 C 28.726 47.802,28.340 48.318,28.042 48.606 C 27.744 48.893,27.500 49.289,27.500 49.485 C 27.500 49.841,27.244 49.998,26.291 50.229 C 25.884 50.327,25.799 50.272,25.550 49.751 C 25.396 49.427,25.021 49.015,24.718 48.837 C 24.415 48.658,24.167 48.397,24.167 48.258 C 24.167 48.118,23.876 47.821,23.521 47.596 C 23.152 47.364,22.829 47.006,22.768 46.764 C 22.700 46.491,22.507 46.299,22.230 46.230 C 21.948 46.159,21.715 45.924,21.561 45.555 C 21.430 45.242,21.141 44.919,20.917 44.833 C 20.688 44.746,20.402 44.422,20.266 44.095 C 20.106 43.712,19.875 43.475,19.593 43.404 C 19.327 43.337,19.125 43.143,19.063 42.894 C 18.850 42.045,16.241 41.814,15.150 42.548 C 14.054 43.284,13.832 46.394,14.833 46.969 C 15.084 47.113,15.378 47.475,15.486 47.774 C 15.594 48.073,15.895 48.496,16.156 48.715 C 16.416 48.934,16.826 49.425,17.066 49.807 C 17.307 50.188,17.604 50.500,17.726 50.500 C 17.848 50.500,18.091 50.769,18.265 51.098 C 18.440 51.427,18.785 51.802,19.032 51.931 C 19.279 52.060,19.580 52.371,19.700 52.623 C 19.821 52.874,20.126 53.179,20.378 53.300 C 20.631 53.421,20.941 53.768,21.067 54.071 C 21.216 54.425,21.451 54.660,21.730 54.730 C 22.007 54.799,22.200 54.991,22.268 55.264 C 22.328 55.503,22.648 55.861,23.000 56.083 C 23.344 56.300,23.672 56.665,23.729 56.893 C 23.800 57.177,24.017 57.368,24.417 57.500 C 24.737 57.606,25.000 57.794,25.000 57.918 C 25.000 58.815,27.309 59.027,27.798 58.175 C 27.953 57.905,28.343 57.545,28.665 57.376 C 28.987 57.207,29.349 56.864,29.469 56.614 C 29.589 56.365,29.875 56.038,30.104 55.888 C 30.332 55.738,30.660 55.339,30.832 55.002 C 31.005 54.664,31.413 54.120,31.740 53.794 C 32.066 53.467,32.333 53.050,32.333 52.866 C 32.333 52.662,32.559 52.400,32.917 52.189 C 33.277 51.976,33.500 51.716,33.500 51.508 C 33.500 51.297,33.745 51.016,34.154 50.758 C 34.531 50.520,34.832 50.189,34.863 49.977 C 34.892 49.774,35.142 49.485,35.417 49.334 C 35.692 49.183,36.014 48.859,36.133 48.615 C 36.253 48.370,36.498 48.091,36.678 47.994 C 36.858 47.898,37.182 47.541,37.398 47.201 C 37.614 46.861,38.052 46.308,38.372 45.971 C 38.692 45.635,38.998 45.137,39.052 44.866 C 39.121 44.520,39.275 44.342,39.571 44.268 C 39.867 44.194,40.032 44.003,40.128 43.623 C 40.224 43.244,40.423 43.013,40.795 42.846 C 41.150 42.688,41.387 42.425,41.509 42.055 C 41.634 41.678,41.828 41.466,42.114 41.394 C 42.385 41.326,42.621 41.085,42.773 40.722 C 42.903 40.410,43.191 40.086,43.413 40.001 C 43.636 39.917,43.940 39.610,44.090 39.320 C 44.240 39.030,44.611 38.544,44.915 38.241 C 45.219 37.937,45.550 37.440,45.651 37.136 C 45.753 36.827,46.043 36.465,46.309 36.314 C 46.610 36.142,46.820 35.856,46.886 35.527 C 46.962 35.148,47.108 34.979,47.430 34.899 C 47.717 34.826,47.950 34.596,48.102 34.231 C 48.230 33.925,48.551 33.563,48.816 33.426 C 49.081 33.289,49.377 32.949,49.474 32.671 C 49.574 32.384,49.829 32.097,50.065 32.007 C 50.683 31.772,50.833 31.336,50.833 29.775 C 50.833 28.020,50.777 27.875,49.978 27.555 C 49.624 27.413,49.333 27.198,49.333 27.077 C 49.333 26.468,47.794 26.075,46.864 26.447 M48.667 27.509 C 48.667 27.606,49.001 27.833,49.410 28.014 C 50.490 28.492,50.676 31.096,49.654 31.421 C 49.474 31.478,49.187 31.800,49.014 32.137 C 48.841 32.474,48.467 32.921,48.183 33.130 C 47.899 33.339,47.667 33.623,47.667 33.761 C 47.667 33.898,47.407 34.164,47.091 34.351 C 46.774 34.538,46.470 34.832,46.415 35.005 C 46.360 35.177,46.104 35.497,45.846 35.714 C 45.588 35.931,45.169 36.422,44.916 36.805 C 44.663 37.187,44.391 37.500,44.313 37.500 C 44.234 37.500,43.941 37.906,43.661 38.402 C 43.381 38.898,43.046 39.344,42.917 39.394 C 42.787 39.443,42.530 39.782,42.344 40.146 C 42.158 40.511,41.853 40.858,41.667 40.917 C 41.480 40.976,41.177 41.319,40.994 41.679 C 40.810 42.039,40.551 42.333,40.417 42.333 C 40.284 42.333,40.047 42.540,39.892 42.792 C 39.736 43.044,39.354 43.512,39.044 43.833 C 38.210 44.693,37.000 46.158,37.000 46.307 C 37.000 46.496,35.485 48.337,33.754 50.250 C 33.340 50.708,32.736 51.383,32.412 51.750 C 32.088 52.117,31.526 52.732,31.162 53.118 C 30.798 53.504,30.500 53.883,30.500 53.959 C 30.500 54.035,30.125 54.541,29.667 55.083 C 29.208 55.625,28.833 56.164,28.833 56.280 C 28.833 56.396,28.590 56.615,28.292 56.766 C 27.994 56.917,27.637 57.134,27.500 57.249 C 26.834 57.806,25.997 57.892,25.527 57.453 C 25.283 57.224,24.914 56.986,24.707 56.924 C 24.499 56.861,24.222 56.601,24.090 56.346 C 23.958 56.091,23.656 55.755,23.418 55.599 C 23.180 55.443,22.901 55.133,22.799 54.909 C 22.697 54.685,22.363 54.354,22.057 54.173 C 21.751 53.992,21.500 53.742,21.500 53.616 C 21.500 53.491,21.219 53.113,20.875 52.776 C 20.211 52.126,19.606 51.446,18.459 50.060 C 18.069 49.589,17.337 48.706,16.833 48.098 C 16.329 47.490,15.673 46.758,15.375 46.470 C 14.016 45.157,15.273 42.667,17.295 42.667 C 17.829 42.667,18.052 42.778,18.542 43.292 C 18.870 43.635,19.238 44.014,19.361 44.133 C 19.483 44.252,19.958 44.753,20.417 45.246 C 20.875 45.739,21.325 46.218,21.417 46.310 C 23.097 47.997,23.833 48.811,23.833 48.981 C 23.833 49.078,24.053 49.272,24.322 49.411 C 24.590 49.549,24.858 49.814,24.916 49.999 C 24.975 50.184,25.202 50.548,25.421 50.808 L 25.819 51.281 26.825 50.798 C 27.378 50.533,27.915 50.151,28.017 49.949 C 28.119 49.748,28.425 49.358,28.698 49.083 C 29.161 48.616,29.746 47.862,30.617 46.611 C 31.056 45.981,31.852 45.057,32.708 44.187 C 33.052 43.837,33.333 43.486,33.333 43.407 C 33.333 43.328,33.652 42.946,34.042 42.557 C 35.337 41.265,36.951 39.370,37.437 38.569 C 37.871 37.856,38.634 36.919,39.375 36.190 C 39.719 35.852,40.000 35.488,40.000 35.380 C 40.000 35.272,40.267 34.980,40.593 34.731 C 40.919 34.482,41.294 34.071,41.425 33.818 C 41.556 33.564,41.808 33.311,41.986 33.254 C 42.164 33.198,42.472 32.876,42.671 32.538 C 42.870 32.201,43.177 31.824,43.352 31.701 C 43.528 31.579,43.822 31.181,44.007 30.819 C 44.192 30.457,44.560 29.967,44.824 29.732 C 45.089 29.496,45.390 29.098,45.494 28.848 C 45.822 28.056,48.667 26.856,48.667 27.509  M -25 0 L -5 0 L -5 20 L -25 20 Z M 405 0 L 425 0 L 425 20 L 405 20 Z" stroke="none" fill="#48a8fc" fill-rule="evenodd" transform="translate(950,0)"></path><path id="path3" d="M3.506 8.989 C 3.248 9.472,3.294 10.000,3.594 10.000 C 4.063 10.000,4.462 9.684,4.640 9.170 C 4.859 8.542,3.833 8.379,3.506 8.989 M60.238 8.865 C 60.275 8.985,60.351 9.290,60.406 9.542 C 60.587 10.366,61.689 10.215,61.625 9.375 C 61.579 8.768,61.558 8.749,60.874 8.699 C 60.354 8.661,60.188 8.705,60.238 8.865 M4.292 9.282 C 4.131 9.323,4.000 9.465,4.000 9.596 C 4.000 9.726,3.922 9.833,3.827 9.833 C 3.710 9.833,3.712 9.726,3.833 9.500 C 3.931 9.317,4.140 9.175,4.298 9.186 C 4.561 9.204,4.561 9.211,4.292 9.282 M65.467 12.867 C 65.577 12.977,65.677 13.333,65.689 13.658 C 65.705 14.079,65.734 14.136,65.787 13.858 C 65.887 13.331,65.707 12.667,65.463 12.667 C 65.314 12.667,65.315 12.715,65.467 12.867 M65.833 15.991 C 65.833 16.649,65.848 16.667,66.404 16.667 C 66.808 16.667,66.998 16.752,67.052 16.958 C 67.094 17.119,67.129 17.025,67.131 16.750 C 67.136 15.783,66.947 15.442,66.370 15.376 C 65.844 15.316,65.833 15.328,65.833 15.991 M83.000 42.407 C 83.000 62.535,83.023 63.942,83.349 63.740 C 83.430 63.690,83.455 63.756,83.405 63.887 C 83.355 64.017,83.426 64.167,83.562 64.219 C 83.734 64.285,83.793 64.223,83.753 64.018 C 83.720 63.846,83.796 63.722,83.934 63.722 C 84.078 63.722,84.137 63.830,84.085 63.995 C 84.015 64.216,84.133 64.273,84.707 64.294 C 85.334 64.318,85.373 64.299,85.042 64.135 C 84.641 63.936,84.529 63.503,84.875 63.495 C 84.990 63.492,84.876 63.307,84.623 63.084 C 84.185 62.699,83.667 62.674,83.667 63.038 C 83.667 63.136,83.561 63.120,83.417 63.000 C 83.101 62.738,83.029 21.833,83.344 21.833 C 83.442 21.833,83.652 21.903,83.812 21.988 C 84.244 22.220,84.566 21.954,84.160 21.701 C 83.973 21.584,83.833 21.567,83.833 21.661 C 83.833 21.767,83.686 21.769,83.417 21.667 L 83.000 21.508 83.000 42.407 M229.833 21.908 C 229.833 22.071,229.929 22.120,230.111 22.050 C 230.305 21.975,230.350 22.006,230.260 22.151 C 230.161 22.310,230.211 22.308,230.475 22.144 C 230.874 21.894,230.883 21.912,230.292 21.770 C 229.948 21.688,229.833 21.722,229.833 21.908 M395.466 27.123 C 395.255 27.171,395.194 27.334,395.227 27.758 C 395.281 28.434,395.494 28.730,395.513 28.153 C 395.520 27.931,395.565 27.847,395.613 27.965 C 395.680 28.132,395.752 28.136,395.937 27.983 C 396.068 27.875,396.227 27.838,396.291 27.902 C 396.355 27.966,396.297 28.088,396.162 28.173 C 396.012 28.268,395.994 28.329,396.115 28.331 C 396.224 28.332,396.363 28.254,396.423 28.157 C 396.591 27.885,396.637 27.165,396.480 27.262 C 396.403 27.310,396.207 27.283,396.045 27.204 C 395.883 27.124,395.622 27.087,395.466 27.123 M95.625 29.789 C 96.015 29.824,96.652 29.824,97.042 29.789 C 97.431 29.754,97.112 29.725,96.333 29.725 C 95.554 29.725,95.235 29.754,95.625 29.789 M93.579 42.500 C 93.579 49.512,93.600 52.381,93.625 48.875 C 93.650 45.369,93.650 39.631,93.625 36.125 C 93.600 32.619,93.579 35.487,93.579 42.500 M160.722 31.424 C 160.722 31.570,160.818 31.644,160.944 31.596 C 161.260 31.475,161.220 31.672,160.875 31.940 C 160.598 32.156,160.598 32.162,160.877 32.065 C 161.098 31.988,161.145 32.029,161.068 32.230 C 161.011 32.378,160.898 32.457,160.816 32.406 C 160.575 32.257,160.644 32.502,160.921 32.778 C 161.217 33.075,162.000 32.697,162.000 32.258 C 162.000 32.129,162.121 31.903,162.268 31.755 C 162.515 31.509,162.488 31.490,161.936 31.528 C 161.605 31.550,161.244 31.478,161.134 31.367 C 160.862 31.096,160.722 31.115,160.722 31.424 M300.102 31.428 C 300.046 31.574,300.075 31.640,300.169 31.582 C 300.259 31.526,300.333 31.551,300.333 31.637 C 300.333 31.724,300.192 31.831,300.019 31.877 C 299.621 31.981,299.607 33.183,300.002 33.291 C 300.219 33.350,300.219 33.337,300.000 33.183 C 299.813 33.051,299.925 33.024,300.448 33.075 C 301.230 33.150,301.452 32.980,301.767 32.064 C 301.958 31.509,301.953 31.500,301.480 31.500 C 300.843 31.500,300.795 31.491,300.475 31.320 C 300.282 31.217,300.171 31.249,300.102 31.428 M167.734 31.467 L 167.217 31.517 167.540 32.171 C 167.902 32.901,168.942 33.599,168.787 33.007 C 168.741 32.832,168.798 32.652,168.914 32.607 C 169.642 32.328,168.657 31.377,167.734 31.467 M395.989 31.517 C 396.212 31.606,396.512 31.638,396.656 31.589 C 396.888 31.509,396.887 31.522,396.652 31.708 C 396.506 31.823,396.419 32.010,396.458 32.125 C 396.496 32.240,396.428 32.336,396.306 32.340 C 396.183 32.344,396.291 32.460,396.546 32.597 C 396.800 32.735,397.080 32.803,397.169 32.749 C 397.260 32.692,397.289 32.779,397.236 32.950 C 397.147 33.233,397.152 33.234,397.330 32.957 C 397.433 32.796,397.467 32.582,397.406 32.482 C 397.325 32.352,397.386 32.350,397.618 32.474 C 397.961 32.657,398.073 32.168,397.754 31.878 C 397.677 31.808,397.667 31.844,397.733 31.958 C 397.814 32.099,397.731 32.167,397.477 32.167 C 397.190 32.167,397.147 32.120,397.294 31.973 C 397.552 31.714,396.825 31.329,396.106 31.344 C 395.598 31.354,395.595 31.359,395.989 31.517 M322.167 31.750 C 322.167 32.061,322.324 32.060,322.740 31.745 C 323.050 31.510,323.045 31.500,322.615 31.500 C 322.328 31.500,322.167 31.590,322.167 31.750 M387.333 47.417 C 387.333 55.926,387.370 62.852,387.415 62.807 C 387.525 62.697,387.530 32.141,387.420 32.031 C 387.372 31.983,387.333 38.907,387.333 47.417 M199.333 34.133 C 199.333 34.207,199.427 34.361,199.542 34.477 C 199.709 34.646,199.692 34.720,199.458 34.852 C 199.298 34.943,199.167 35.097,199.167 35.195 C 199.167 35.310,199.257 35.300,199.417 35.167 C 199.616 35.001,199.667 35.001,199.667 35.167 C 199.667 35.332,199.717 35.332,199.917 35.167 C 200.194 34.937,200.264 34.587,200.000 34.750 C 199.763 34.896,199.793 34.609,200.042 34.348 C 200.212 34.169,200.178 34.151,199.854 34.249 C 199.583 34.331,199.494 34.311,199.572 34.185 C 199.635 34.083,199.607 34.000,199.510 34.000 C 199.413 34.000,199.333 34.060,199.333 34.133 M363.379 35.000 C 363.379 35.412,363.411 35.581,363.451 35.375 C 363.491 35.169,363.491 34.831,363.451 34.625 C 363.411 34.419,363.379 34.587,363.379 35.000 M241.167 37.950 C 244.681 38.068,247.962 38.073,247.891 37.958 C 247.849 37.890,245.999 37.849,243.782 37.868 C 241.564 37.886,240.387 37.923,241.167 37.950 M110.546 44.208 C 110.221 44.630,110.109 44.888,110.307 44.766 C 110.504 44.644,110.899 44.000,110.776 44.000 C 110.738 44.000,110.635 44.094,110.546 44.208 M266.550 45.167 C 266.550 45.671,266.581 45.877,266.619 45.625 C 266.658 45.373,266.658 44.960,266.619 44.708 C 266.581 44.456,266.550 44.663,266.550 45.167 M249.125 45.784 C 249.331 45.824,249.669 45.824,249.875 45.784 C 250.081 45.745,249.912 45.712,249.500 45.712 C 249.088 45.712,248.919 45.745,249.125 45.784 M266.550 50.500 C 266.550 51.004,266.581 51.210,266.619 50.958 C 266.658 50.706,266.658 50.294,266.619 50.042 C 266.581 49.790,266.550 49.996,266.550 50.500 M209.875 51.125 C 212.510 51.151,216.823 51.151,219.458 51.125 C 222.094 51.099,219.938 51.078,214.667 51.078 C 209.396 51.078,207.240 51.099,209.875 51.125 M217.375 52.615 C 217.535 52.657,217.798 52.657,217.958 52.615 C 218.119 52.573,217.987 52.539,217.667 52.539 C 217.346 52.539,217.215 52.573,217.375 52.615 M206.167 55.458 C 206.167 55.654,206.243 55.861,206.336 55.918 C 206.429 55.976,206.455 56.104,206.394 56.204 C 206.327 56.312,206.359 56.337,206.474 56.266 C 206.731 56.107,206.709 55.820,206.411 55.426 C 206.172 55.109,206.167 55.110,206.167 55.458 M240.042 56.615 C 240.202 56.657,240.465 56.657,240.625 56.615 C 240.785 56.573,240.654 56.539,240.333 56.539 C 240.012 56.539,239.881 56.573,240.042 56.615 M116.405 57.628 C 116.183 57.779,115.967 58.334,116.130 58.332 C 116.196 58.331,116.337 58.144,116.443 57.915 C 116.549 57.687,116.624 57.501,116.609 57.503 C 116.595 57.504,116.503 57.560,116.405 57.628 M114.110 59.247 C 113.855 59.502,113.779 59.514,113.659 59.321 C 113.554 59.151,113.522 59.190,113.543 59.465 C 113.561 59.696,113.654 59.810,113.786 59.759 C 113.904 59.714,114.001 59.769,114.003 59.880 C 114.004 60.013,114.058 59.999,114.158 59.841 C 114.242 59.708,114.268 59.521,114.215 59.425 C 114.161 59.329,114.219 59.344,114.342 59.458 C 114.609 59.706,115.000 59.734,115.000 59.505 C 115.000 59.416,114.894 59.384,114.765 59.434 C 114.625 59.488,114.506 59.405,114.473 59.232 C 114.420 58.958,114.398 58.959,114.110 59.247 M292.999 60.417 C 292.986 60.508,292.949 60.715,292.919 60.875 C 292.888 61.035,292.950 61.168,293.056 61.169 C 293.166 61.171,293.141 61.242,293.000 61.333 C 292.862 61.422,292.815 61.496,292.895 61.497 C 292.975 61.499,292.953 61.606,292.846 61.735 C 292.698 61.913,292.698 62.000,292.843 62.089 C 292.984 62.176,292.975 62.247,292.809 62.352 C 292.680 62.434,292.663 62.496,292.769 62.497 C 292.871 62.499,293.153 62.344,293.396 62.153 C 293.927 61.735,293.809 61.368,293.259 61.729 L 292.881 61.976 293.188 61.374 C 293.357 61.044,293.590 60.713,293.706 60.639 C 293.858 60.542,293.862 60.504,293.718 60.503 C 293.609 60.501,293.465 60.589,293.398 60.697 C 293.314 60.833,293.236 60.794,293.150 60.572 C 293.080 60.395,293.012 60.325,292.999 60.417 M160.938 62.886 C 160.888 63.077,160.917 63.317,161.003 63.420 C 161.089 63.524,161.127 63.771,161.089 63.971 C 161.043 64.208,161.102 64.333,161.260 64.333 C 161.392 64.333,161.500 64.221,161.500 64.083 C 161.500 63.946,161.643 63.833,161.818 63.833 C 162.063 63.833,162.115 63.748,162.044 63.458 C 161.849 62.662,161.098 62.273,160.938 62.886 M230.260 62.683 C 230.350 62.828,230.305 62.858,230.111 62.784 C 229.930 62.714,229.833 62.762,229.833 62.922 C 229.833 63.057,229.721 63.167,229.583 63.167 C 229.279 63.167,229.263 63.357,229.542 63.658 C 229.704 63.833,229.705 63.857,229.544 63.766 C 229.408 63.689,229.369 63.733,229.431 63.895 C 229.483 64.030,229.636 64.183,229.772 64.235 C 229.907 64.287,229.984 64.274,229.943 64.206 C 229.902 64.139,229.981 63.979,230.120 63.851 C 230.339 63.648,230.357 63.662,230.261 63.964 C 230.161 64.280,230.205 64.303,230.776 64.233 C 231.492 64.144,231.739 64.000,231.175 64.000 C 230.808 64.000,230.804 63.986,231.068 63.583 C 231.307 63.219,231.309 63.167,231.087 63.167 C 230.948 63.167,230.833 63.110,230.833 63.040 C 230.833 62.970,230.675 62.815,230.483 62.694 C 230.220 62.530,230.164 62.527,230.260 62.683 M299.730 63.111 C 299.764 63.973,300.375 64.390,301.078 64.031 C 301.380 63.877,301.552 63.702,301.459 63.644 C 301.367 63.585,301.343 63.453,301.406 63.350 C 301.694 62.884,301.349 62.583,300.523 62.583 C 299.716 62.583,299.710 62.588,299.730 63.111 M188.980 62.868 C 188.545 63.214,188.465 63.833,188.854 63.833 C 189.032 63.833,189.221 63.946,189.274 64.085 C 189.377 64.354,190.333 64.380,190.333 64.113 C 190.333 64.031,190.202 64.012,190.042 64.071 C 189.859 64.138,189.911 64.036,190.181 63.797 C 191.053 63.028,189.898 62.134,188.980 62.868 M396.939 62.869 C 396.983 62.941,396.874 63.000,396.697 63.000 C 396.519 63.000,396.281 63.112,396.167 63.250 C 395.993 63.459,396.017 63.500,396.313 63.500 C 396.761 63.500,396.776 63.836,396.333 63.952 C 395.748 64.105,395.976 64.348,396.667 64.308 C 397.033 64.286,397.333 64.208,397.333 64.134 C 397.333 64.060,397.446 64.000,397.583 64.000 C 397.721 64.000,397.842 63.944,397.852 63.875 C 397.986 62.995,397.971 62.848,397.765 63.040 C 397.647 63.150,397.566 63.355,397.585 63.495 C 397.605 63.649,397.590 63.663,397.545 63.529 C 397.504 63.406,397.349 63.351,397.194 63.405 C 396.953 63.488,396.955 63.471,397.208 63.274 C 397.592 62.975,397.579 62.738,397.179 62.738 C 397.002 62.738,396.894 62.797,396.939 62.869 M108.400 62.956 C 108.443 62.999,108.404 63.232,108.312 63.473 L 108.145 63.912 108.614 63.497 C 108.872 63.270,109.105 63.074,109.132 63.062 C 109.159 63.051,108.987 63.005,108.751 62.959 C 108.515 62.914,108.357 62.913,108.400 62.956 M309.077 63.024 C 308.536 63.167,308.340 63.816,308.827 63.853 C 308.968 63.864,308.858 63.930,308.583 64.000 C 308.107 64.121,308.103 64.129,308.500 64.168 C 308.729 64.191,309.083 64.227,309.287 64.248 C 309.491 64.270,309.617 64.222,309.567 64.141 C 309.518 64.060,309.388 64.039,309.280 64.093 C 309.172 64.147,309.233 64.070,309.417 63.922 C 309.600 63.774,309.731 63.618,309.708 63.576 C 309.612 63.400,309.678 63.167,309.824 63.167 C 309.910 63.167,309.950 63.327,309.912 63.523 C 309.875 63.718,309.893 63.829,309.954 63.768 C 310.479 63.243,309.950 62.794,309.077 63.024 M352.542 62.955 C 352.227 63.065,352.292 63.498,352.625 63.517 C 352.819 63.528,352.778 63.578,352.500 63.667 L 352.083 63.800 352.536 63.817 C 352.893 63.830,352.966 63.894,352.880 64.120 C 352.783 64.373,352.800 64.378,353.031 64.162 C 353.174 64.028,353.269 63.805,353.242 63.667 C 353.215 63.530,353.186 63.331,353.179 63.226 C 353.164 62.997,352.829 62.855,352.542 62.955 M374.609 63.201 C 374.556 63.403,374.548 63.603,374.590 63.645 C 374.632 63.688,374.667 63.626,374.667 63.507 C 374.667 63.332,374.714 63.332,374.925 63.507 C 375.132 63.679,375.140 63.751,374.966 63.876 C 374.812 63.987,374.838 64.003,375.055 63.932 C 375.223 63.878,375.504 63.833,375.680 63.833 C 375.856 63.833,376.000 63.758,376.000 63.667 C 376.000 63.575,375.841 63.500,375.646 63.500 C 375.369 63.500,375.333 63.451,375.478 63.276 C 375.719 62.986,375.514 62.781,375.224 63.022 C 375.059 63.158,375.000 63.158,375.000 63.020 C 375.000 62.687,374.708 62.822,374.609 63.201 M167.795 63.404 C 167.740 63.690,167.803 63.830,168.008 63.884 C 168.208 63.936,168.282 63.875,168.245 63.688 C 168.216 63.539,168.186 63.323,168.179 63.208 C 168.157 62.842,167.875 62.985,167.795 63.404 M397.162 64.007 C 396.767 64.256,396.553 64.179,396.904 63.913 C 397.081 63.779,397.266 63.711,397.316 63.761 C 397.366 63.811,397.297 63.921,397.162 64.007 M102.208 64.282 C 102.369 64.323,102.631 64.323,102.792 64.282 C 102.952 64.240,102.821 64.205,102.500 64.205 C 102.179 64.205,102.048 64.240,102.208 64.282 M287.741 64.319 C 287.783 64.386,287.710 64.645,287.581 64.894 L 287.346 65.347 287.840 64.995 C 288.418 64.583,288.459 64.405,288.000 64.285 C 287.816 64.237,287.700 64.252,287.741 64.319 M375.377 64.286 C 375.631 64.325,376.006 64.324,376.211 64.284 C 376.416 64.244,376.208 64.213,375.750 64.214 C 375.292 64.216,375.124 64.248,375.377 64.286 M204.769 64.573 C 204.820 64.705,205.047 64.935,205.273 65.083 L 205.686 65.353 205.422 64.843 C 205.161 64.339,204.588 64.102,204.769 64.573 M66.712 69.322 C 66.725 69.499,66.795 69.607,66.868 69.562 C 67.053 69.448,67.033 69.000,66.844 69.000 C 66.758 69.000,66.698 69.145,66.712 69.322 M65.664 71.450 C 65.619 71.927,65.644 72.256,65.719 72.181 C 65.794 72.106,65.830 71.716,65.799 71.314 L 65.744 70.583 65.664 71.450 M3.391 75.256 C 3.337 75.397,3.433 75.673,3.605 75.868 C 3.776 76.064,3.811 76.162,3.683 76.086 C 3.525 75.993,3.487 76.011,3.567 76.141 C 3.763 76.457,4.891 76.391,4.768 76.070 C 4.712 75.925,4.667 75.625,4.667 75.403 C 4.667 74.917,3.570 74.790,3.391 75.256 M61.415 75.169 C 61.357 75.263,61.252 75.303,61.180 75.258 C 61.002 75.148,60.305 75.819,60.414 75.996 C 60.462 76.074,60.408 76.176,60.293 76.223 C 60.178 76.269,60.346 76.312,60.667 76.318 C 61.498 76.333,61.802 76.116,61.489 75.731 C 61.340 75.547,61.328 75.483,61.458 75.561 C 61.573 75.630,61.667 75.651,61.667 75.607 C 61.667 75.563,61.712 75.409,61.768 75.264 C 61.879 74.975,61.584 74.896,61.415 75.169 M7.500 76.490 C 7.500 76.595,7.684 76.866,7.909 77.091 L 8.318 77.500 32.539 77.500 C 58.416 77.500,57.500 77.528,57.500 76.748 C 57.500 76.596,57.357 76.658,57.091 76.924 L 56.682 77.333 32.574 77.333 L 8.467 77.333 7.984 76.816 C 7.718 76.531,7.500 76.384,7.500 76.490 M8.107 76.585 C 8.225 76.892,8.796 77.050,9.438 76.955 C 9.862 76.892,9.847 76.880,9.312 76.858 C 8.980 76.845,8.614 76.721,8.500 76.583 C 8.232 76.260,7.983 76.261,8.107 76.585 M8.609 76.542 C 8.652 76.610,19.440 76.667,32.583 76.667 C 45.727 76.667,56.515 76.610,56.558 76.542 C 56.600 76.473,45.812 76.417,32.583 76.417 C 19.355 76.417,8.567 76.473,8.609 76.542 M56.777 76.573 C 56.727 76.704,56.400 76.842,56.051 76.878 L 55.417 76.944 56.016 76.972 C 56.429 76.991,56.709 76.897,56.917 76.667 C 57.083 76.483,57.140 76.333,57.044 76.333 C 56.948 76.333,56.828 76.441,56.777 76.573 M21.529 76.958 C 27.549 76.983,37.449 76.983,43.529 76.958 C 49.609 76.934,44.683 76.914,32.583 76.914 C 20.483 76.914,15.509 76.934,21.529 76.958  M -25 0 L -5 0 L -5 20 L -25 20 Z M 405 0 L 425 0 L 425 20 L 405 20 Z" stroke="none" fill="#2c2c2c" fill-rule="evenodd" transform="translate(30,145)"></path><path id="path4" d="M7.711 7.469 C 7.598 7.541,7.457 7.840,7.398 8.134 L 7.291 8.669 32.479 8.666 L 57.667 8.662 57.667 8.170 C 57.667 7.855,57.551 7.617,57.344 7.506 C 56.959 7.300,8.034 7.264,7.711 7.469 M4.145 7.875 C 4.007 7.990,3.758 8.308,3.592 8.583 C 3.426 8.858,3.390 8.990,3.512 8.875 C 3.637 8.757,4.157 8.667,4.706 8.667 C 5.662 8.667,5.675 8.660,5.481 8.292 C 5.140 7.644,4.621 7.482,4.145 7.875 M59.844 7.990 C 59.308 8.525,59.420 8.634,60.573 8.694 L 61.646 8.750 61.262 8.250 C 60.785 7.631,60.293 7.540,59.844 7.990 M1.333 9.333 C 1.150 9.517,1.000 9.802,1.000 9.967 C 1.000 10.351,0.684 10.667,0.300 10.667 C 0.061 10.667,0.000 10.802,0.000 11.333 C 0.000 11.889,0.056 12.000,0.333 12.000 C 0.556 12.000,0.667 11.889,0.667 11.667 C 0.667 11.483,0.764 11.333,0.883 11.333 C 1.454 11.333,1.997 10.907,1.999 10.458 C 2.000 10.035,2.051 10.000,2.667 10.000 C 3.225 10.000,3.333 9.945,3.333 9.663 C 3.333 9.007,1.896 8.771,1.333 9.333 M62.743 9.614 C 62.479 9.878,62.483 9.903,62.793 10.018 C 63.001 10.095,63.166 10.359,63.235 10.727 C 63.330 11.237,63.414 11.320,63.880 11.365 C 64.328 11.408,64.429 11.498,64.500 11.913 C 64.563 12.280,64.716 12.453,65.084 12.578 C 65.756 12.804,65.828 12.938,65.831 13.971 C 65.833 14.720,65.878 14.849,66.121 14.802 C 66.897 14.653,66.876 12.925,66.091 12.226 C 65.870 12.029,65.606 11.562,65.506 11.187 C 65.320 10.499,64.951 10.167,64.373 10.167 C 64.200 10.167,63.882 9.979,63.667 9.750 C 63.204 9.257,63.113 9.244,62.743 9.614 M67.082 15.979 C 67.128 16.289,67.167 16.694,67.167 16.880 C 67.167 17.209,67.176 17.210,67.503 16.914 C 67.832 16.616,67.833 16.604,67.524 16.263 C 67.351 16.073,67.161 15.804,67.103 15.667 C 67.045 15.529,67.035 15.670,67.082 15.979 M390.175 18.240 C 390.024 18.422,389.777 18.463,389.259 18.392 C 388.381 18.272,387.893 18.515,387.755 19.142 C 387.698 19.405,387.429 19.832,387.159 20.091 C 386.552 20.672,386.464 21.765,386.985 22.237 C 387.288 22.511,387.307 22.510,387.372 22.221 C 387.409 22.054,387.407 22.667,387.367 23.583 C 387.307 24.941,387.233 25.317,386.966 25.609 C 386.227 26.419,386.291 27.775,387.086 28.138 C 387.311 28.240,387.515 28.523,387.581 28.824 C 387.709 29.404,388.088 29.667,388.797 29.667 C 389.388 29.667,389.909 29.143,389.786 28.672 C 389.738 28.485,389.766 28.375,389.849 28.426 C 389.932 28.478,390.001 28.721,390.003 28.968 C 390.007 29.823,390.084 29.846,392.763 29.796 L 395.250 29.750 395.228 28.473 C 395.206 27.119,395.397 26.826,396.061 27.197 C 396.212 27.282,396.400 27.312,396.478 27.264 C 396.637 27.166,396.592 27.883,396.423 28.157 C 396.363 28.254,396.224 28.332,396.115 28.331 C 395.994 28.329,396.012 28.268,396.162 28.173 C 396.297 28.088,396.355 27.966,396.291 27.902 C 396.227 27.838,396.068 27.875,395.937 27.983 C 395.752 28.136,395.680 28.132,395.613 27.965 C 395.565 27.847,395.520 28.031,395.513 28.375 C 395.484 29.767,397.116 30.199,397.722 28.958 C 397.912 28.569,398.145 28.333,398.338 28.333 C 399.433 28.333,399.326 26.207,398.227 26.125 C 397.790 26.093,397.897 25.667,398.342 25.667 C 399.502 25.667,399.466 22.308,398.303 22.136 C 397.813 22.064,397.726 21.705,398.182 21.638 C 399.219 21.484,399.344 20.056,398.364 19.567 C 398.152 19.462,397.852 19.122,397.698 18.813 C 397.277 17.970,396.057 17.969,395.636 18.812 L 395.356 19.373 395.303 18.728 L 395.250 18.083 392.816 18.037 C 390.820 18.000,390.344 18.036,390.175 18.240 M82.802 19.636 C 81.786 20.251,81.929 21.164,83.105 21.565 C 83.506 21.701,83.833 21.742,83.833 21.655 C 83.833 21.568,83.980 21.589,84.160 21.701 C 84.566 21.954,84.244 22.220,83.812 21.988 C 83.652 21.903,83.442 21.833,83.344 21.833 C 83.029 21.833,83.101 62.738,83.417 63.000 C 83.561 63.120,83.667 63.136,83.667 63.038 C 83.667 62.674,84.185 62.699,84.623 63.084 C 84.876 63.307,84.990 63.492,84.875 63.495 C 84.760 63.498,84.667 63.600,84.667 63.723 C 84.667 64.308,85.321 64.341,96.532 64.323 C 107.506 64.304,107.532 64.305,107.775 64.652 C 108.205 65.265,109.500 64.456,109.500 63.575 C 109.500 63.051,109.780 63.054,110.196 63.583 C 110.752 64.290,111.465 64.119,111.985 63.153 C 112.268 62.628,112.346 62.588,112.972 62.639 C 113.860 62.711,114.325 62.552,114.484 62.121 C 114.563 61.907,114.860 61.702,115.251 61.593 C 115.763 61.449,115.926 61.301,116.082 60.836 C 116.214 60.445,116.407 60.229,116.680 60.166 C 116.920 60.111,117.176 59.866,117.313 59.558 C 117.442 59.267,117.769 58.942,118.063 58.813 C 118.469 58.634,118.620 58.430,118.752 57.884 C 118.845 57.499,119.126 56.970,119.376 56.709 C 119.657 56.415,119.887 55.931,119.980 55.438 C 120.069 54.958,120.301 54.461,120.564 54.187 C 121.110 53.617,121.148 52.733,120.654 52.106 C 120.196 51.523,120.296 51.107,120.919 51.000 L 121.417 50.914 121.548 49.332 C 121.620 48.462,121.657 44.691,121.631 40.952 C 121.579 33.557,121.607 33.757,120.649 33.879 C 120.143 33.944,120.160 33.543,120.693 32.853 C 121.107 32.316,121.096 31.305,120.671 30.921 C 120.490 30.757,120.297 30.483,120.243 30.311 C 120.177 30.102,119.987 30.000,119.665 30.000 C 118.974 30.000,118.928 29.765,119.506 29.186 C 120.058 28.634,119.902 27.769,119.225 27.638 C 119.072 27.608,118.860 27.321,118.754 27.000 C 118.625 26.610,118.393 26.341,118.052 26.187 C 117.772 26.061,117.439 25.726,117.313 25.442 C 117.178 25.140,116.920 24.888,116.690 24.836 C 116.453 24.782,116.187 24.516,116.023 24.171 C 115.853 23.814,115.593 23.560,115.333 23.500 C 115.103 23.446,114.817 23.197,114.695 22.941 C 114.242 22.002,113.056 21.936,112.612 22.825 C 112.475 23.100,112.435 23.352,112.521 23.396 C 112.606 23.439,112.581 23.456,112.467 23.433 C 112.331 23.406,112.275 23.156,112.307 22.718 C 112.342 22.228,112.284 22.017,112.094 21.944 C 111.951 21.889,111.833 21.732,111.833 21.594 C 111.833 20.949,110.664 20.822,110.196 21.417 C 109.770 21.959,109.698 21.943,109.636 21.292 C 109.584 20.758,109.570 20.749,108.644 20.701 C 107.968 20.665,107.622 20.560,107.410 20.326 C 107.029 19.905,106.746 19.914,106.437 20.356 C 105.892 21.133,104.176 20.783,104.169 19.893 C 104.168 19.696,104.048 19.490,103.903 19.434 C 103.210 19.169,83.258 19.359,82.802 19.636 M228.881 19.579 C 227.998 19.963,227.959 21.306,228.823 21.580 L 229.167 21.689 229.167 42.511 C 229.167 62.770,229.158 63.333,228.854 63.333 C 228.397 63.333,228.133 63.739,228.133 64.444 C 228.133 65.775,229.956 65.982,230.326 64.693 C 230.430 64.330,230.423 64.194,230.305 64.268 C 230.192 64.338,230.173 64.243,230.251 63.997 C 230.356 63.665,230.340 63.647,230.120 63.851 C 229.981 63.979,229.902 64.139,229.943 64.206 C 229.984 64.274,229.907 64.287,229.772 64.235 C 229.636 64.183,229.483 64.030,229.431 63.895 C 229.369 63.733,229.408 63.689,229.544 63.766 C 229.705 63.857,229.704 63.833,229.542 63.658 C 229.263 63.357,229.279 63.167,229.583 63.167 C 229.721 63.167,229.833 63.057,229.833 62.922 C 229.833 62.762,229.930 62.714,230.111 62.784 C 230.305 62.858,230.350 62.828,230.260 62.683 C 230.164 62.527,230.220 62.530,230.483 62.694 C 230.675 62.815,230.833 62.970,230.833 63.040 C 230.833 63.110,230.948 63.167,231.087 63.167 C 231.309 63.167,231.307 63.219,231.068 63.583 C 230.804 63.987,230.807 64.001,231.189 64.017 L 231.583 64.033 231.167 64.169 C 230.938 64.243,236.221 64.306,242.908 64.309 L 255.067 64.313 255.341 64.676 C 255.640 65.074,256.227 65.019,256.396 64.577 C 256.447 64.443,256.591 64.333,256.715 64.333 C 256.840 64.333,257.016 64.052,257.107 63.708 L 257.273 63.083 257.498 63.546 C 257.964 64.501,259.154 64.289,259.601 63.170 C 259.847 62.556,259.921 62.500,260.489 62.500 C 261.156 62.500,261.833 61.970,261.833 61.448 C 261.833 61.287,261.963 61.167,262.138 61.167 C 262.629 61.167,263.167 60.464,263.167 59.821 C 263.167 59.427,263.271 59.181,263.500 59.039 C 263.683 58.924,263.833 58.742,263.833 58.634 C 263.833 58.526,263.988 58.274,264.177 58.073 L 264.520 57.707 264.080 57.360 C 263.481 56.889,263.591 56.440,264.331 56.333 C 265.117 56.220,265.196 55.700,265.132 51.118 C 265.077 47.175,265.076 47.175,264.125 47.169 C 263.761 47.167,263.667 47.090,263.669 46.792 C 263.671 46.510,263.708 46.474,263.819 46.649 C 263.938 46.837,264.050 46.798,264.400 46.449 C 264.977 45.871,264.957 45.774,264.083 44.925 C 263.671 44.524,263.333 44.058,263.333 43.890 C 263.331 43.127,262.709 42.500,261.953 42.500 C 261.261 42.500,261.224 42.474,260.931 41.762 C 260.723 41.258,260.474 40.961,260.146 40.825 C 259.528 40.569,259.541 40.439,260.204 40.243 C 260.607 40.123,260.780 39.950,260.893 39.550 C 260.996 39.186,261.191 38.966,261.512 38.854 C 261.872 38.729,262.025 38.526,262.171 37.983 C 262.276 37.594,262.543 37.133,262.764 36.959 C 263.377 36.477,263.242 34.474,262.612 34.716 C 262.189 34.878,262.391 28.054,262.823 27.595 C 263.185 27.209,263.186 27.198,262.872 26.893 C 262.697 26.723,262.513 26.470,262.464 26.332 C 262.415 26.193,262.030 25.988,261.608 25.875 C 260.981 25.707,260.863 25.617,260.958 25.377 C 261.068 25.098,261.076 25.098,261.132 25.375 C 261.205 25.734,261.322 25.739,261.796 25.407 C 262.459 24.943,262.132 23.500,261.363 23.500 C 261.257 23.500,261.037 23.223,260.876 22.884 C 260.662 22.435,260.437 22.231,260.042 22.130 C 259.744 22.053,259.500 21.918,259.500 21.829 C 259.500 21.078,258.161 20.766,257.735 21.417 C 257.364 21.982,257.202 21.941,257.072 21.250 C 257.012 20.929,256.875 20.667,256.768 20.667 C 256.662 20.667,256.446 20.517,256.289 20.333 C 256.068 20.075,255.797 20.000,255.091 20.000 C 254.349 20.000,254.145 20.062,254.000 20.333 C 253.739 20.821,252.939 20.781,252.705 20.268 C 252.273 19.320,252.438 19.333,240.433 19.340 C 231.376 19.345,229.321 19.388,228.881 19.579 M357.816 19.519 C 356.825 19.883,356.853 21.412,357.855 21.613 C 358.518 21.745,358.279 22.000,357.490 22.000 C 356.974 22.000,356.833 22.063,356.833 22.293 C 356.833 22.455,356.683 22.680,356.500 22.795 C 355.981 23.119,356.031 24.503,356.583 25.099 C 357.150 25.711,357.116 25.795,356.250 25.925 C 355.710 26.006,355.500 26.115,355.500 26.312 C 355.500 26.463,355.350 26.680,355.167 26.795 C 354.641 27.123,354.694 28.548,355.250 29.031 C 355.811 29.519,355.784 29.833,355.180 29.833 C 354.516 29.833,354.167 29.988,354.167 30.283 C 354.167 30.419,353.998 30.667,353.792 30.834 L 353.417 31.138 353.772 31.528 C 354.022 31.800,354.151 32.204,354.203 32.875 L 354.277 33.833 353.633 33.833 C 353.171 33.833,352.961 33.915,352.887 34.125 C 352.830 34.285,352.635 34.582,352.454 34.784 L 352.124 35.151 352.555 35.663 C 353.065 36.270,353.011 36.489,352.138 37.362 C 351.787 37.713,351.500 38.089,351.500 38.198 C 351.500 38.306,351.340 38.565,351.145 38.773 L 350.790 39.151 351.221 39.663 C 351.728 40.265,351.645 40.667,351.015 40.667 C 349.735 40.667,349.003 42.713,349.935 43.686 C 350.424 44.197,350.349 44.500,349.732 44.500 C 348.467 44.500,347.679 46.723,348.602 47.686 C 349.085 48.190,349.016 48.500,348.420 48.500 C 347.872 48.500,347.500 48.665,347.500 48.909 C 347.500 49.022,347.350 49.251,347.167 49.417 C 346.653 49.881,346.701 51.158,347.250 51.636 C 347.854 52.161,347.793 52.500,347.093 52.500 C 345.331 52.500,344.612 54.341,345.899 55.560 C 346.283 55.925,346.583 56.510,346.369 56.478 C 345.618 56.366,344.978 56.536,344.847 56.882 C 344.767 57.092,344.581 57.364,344.434 57.486 C 343.990 57.854,344.079 59.102,344.583 59.569 C 345.225 60.164,345.133 60.500,344.329 60.500 C 343.783 60.500,343.631 60.571,343.513 60.882 C 343.433 61.092,343.249 61.362,343.104 61.483 C 342.798 61.737,343.044 62.416,343.394 62.282 C 343.534 62.228,343.575 62.376,343.529 62.769 C 343.481 63.181,343.381 63.333,343.158 63.333 C 342.793 63.333,342.333 63.937,342.333 64.417 C 342.333 65.722,345.127 66.002,345.695 64.753 L 345.887 64.333 348.956 64.333 L 352.026 64.333 352.519 64.827 C 353.538 65.846,354.820 65.651,355.314 64.401 C 355.462 64.026,355.715 63.590,355.875 63.431 C 356.276 63.034,356.263 61.877,355.852 61.427 C 355.185 60.697,355.232 60.333,355.994 60.333 C 356.479 60.333,356.708 60.252,356.784 60.054 C 356.843 59.901,357.028 59.638,357.196 59.471 C 357.627 59.039,357.610 57.818,357.167 57.417 C 356.646 56.945,356.723 56.333,357.303 56.333 C 357.630 56.333,357.929 56.156,358.288 55.750 L 358.805 55.167 365.152 55.167 C 371.100 55.167,371.500 55.185,371.500 55.460 C 371.500 55.621,371.350 55.847,371.167 55.961 C 370.983 56.076,370.833 56.270,370.833 56.392 C 370.833 56.515,370.983 56.751,371.167 56.917 C 371.400 57.128,371.500 57.430,371.500 57.922 C 371.500 58.714,371.692 58.945,372.417 59.027 C 372.995 59.092,373.030 59.581,372.484 59.963 C 371.444 60.692,372.514 63.097,373.823 62.972 C 374.349 62.922,374.487 62.959,374.420 63.134 C 374.372 63.259,374.332 63.411,374.331 63.472 C 374.329 63.533,374.263 63.481,374.184 63.356 C 374.063 63.165,373.968 63.165,373.574 63.356 C 372.242 64.005,373.074 66.000,374.484 65.535 C 374.989 65.368,375.481 64.528,375.182 64.343 C 375.078 64.278,376.840 64.260,379.098 64.302 C 382.462 64.364,383.228 64.336,383.344 64.149 C 383.465 63.954,383.519 63.955,383.701 64.151 C 383.879 64.341,383.875 64.359,383.684 64.250 C 383.414 64.096,383.559 64.920,383.867 65.291 C 384.086 65.555,385.535 65.565,385.795 65.305 C 385.945 65.155,386.092 65.155,386.420 65.305 C 387.336 65.722,388.095 65.506,388.408 64.740 L 388.595 64.283 392.297 64.318 C 394.537 64.340,396.000 64.292,396.000 64.196 C 396.000 64.110,396.150 64.000,396.333 63.952 C 396.776 63.836,396.761 63.500,396.313 63.500 C 396.017 63.500,395.993 63.459,396.167 63.250 C 396.281 63.112,396.519 63.000,396.697 63.000 C 396.874 63.000,396.983 62.941,396.939 62.869 C 396.894 62.797,397.002 62.738,397.179 62.738 C 397.579 62.738,397.592 62.975,397.208 63.274 C 396.955 63.471,396.953 63.488,397.194 63.405 C 397.349 63.351,397.504 63.406,397.545 63.529 C 397.586 63.651,397.599 63.619,397.575 63.458 C 397.529 63.152,397.747 63.060,397.907 63.318 C 398.051 63.551,397.826 64.000,397.566 64.000 C 397.438 64.000,397.333 64.079,397.333 64.177 C 397.333 64.274,397.258 64.306,397.165 64.249 C 396.861 64.061,396.791 64.661,397.069 65.085 C 397.641 65.958,399.167 65.472,399.167 64.417 C 399.167 63.943,398.732 63.367,398.326 63.303 C 397.989 63.250,397.987 63.197,397.996 47.966 L 398.005 32.681 397.649 32.491 C 397.404 32.360,397.328 32.357,397.406 32.482 C 397.467 32.582,397.433 32.796,397.330 32.957 C 397.152 33.234,397.147 33.233,397.236 32.950 C 397.289 32.779,397.260 32.692,397.169 32.749 C 397.080 32.803,396.800 32.735,396.546 32.597 C 396.291 32.460,396.183 32.344,396.306 32.340 C 396.428 32.336,396.496 32.240,396.458 32.125 C 396.419 32.010,396.506 31.823,396.652 31.708 C 396.887 31.522,396.888 31.509,396.656 31.589 C 396.512 31.638,396.212 31.606,395.989 31.517 C 395.595 31.359,395.598 31.354,396.106 31.344 C 396.825 31.329,397.552 31.714,397.294 31.973 C 397.147 32.120,397.190 32.167,397.477 32.167 C 397.719 32.167,397.811 32.098,397.734 31.974 C 397.662 31.858,397.688 31.827,397.800 31.896 C 397.902 31.959,397.944 32.117,397.894 32.248 C 397.778 32.552,398.820 32.288,399.027 31.961 C 399.313 31.511,399.180 30.528,398.796 30.259 C 398.067 29.748,396.833 30.161,396.833 30.917 C 396.833 31.132,396.281 31.167,392.875 31.169 C 390.698 31.171,388.808 31.241,388.675 31.325 C 388.542 31.409,388.365 31.436,388.282 31.385 C 388.199 31.334,388.229 31.231,388.348 31.158 C 388.678 30.954,388.285 30.233,387.775 30.104 C 386.831 29.868,386.034 30.665,386.271 31.608 C 386.392 32.089,387.178 32.549,387.293 32.205 C 387.543 31.454,387.574 33.781,387.500 47.609 C 387.454 56.120,387.477 63.170,387.550 63.277 C 387.623 63.383,387.611 63.515,387.522 63.570 C 387.434 63.624,387.330 63.575,387.290 63.459 C 387.233 63.292,387.107 63.291,386.660 63.456 C 385.969 63.711,385.860 63.572,385.961 62.559 C 386.035 61.817,386.028 61.805,385.560 61.837 C 384.579 61.903,384.469 61.860,384.596 61.458 C 384.661 61.252,384.854 60.985,385.024 60.866 C 385.462 60.557,385.467 58.948,385.031 58.634 C 384.864 58.515,384.679 58.285,384.619 58.125 C 384.541 57.915,384.327 57.833,383.854 57.833 C 383.121 57.833,383.055 57.470,383.683 56.902 C 384.124 56.503,384.134 54.949,383.697 54.634 C 383.531 54.515,383.346 54.285,383.286 54.125 C 383.208 53.915,382.993 53.833,382.521 53.833 C 381.788 53.833,381.722 53.470,382.350 52.902 C 382.813 52.483,382.801 50.920,382.333 50.628 C 382.150 50.513,382.000 50.327,382.000 50.213 C 382.000 49.970,381.294 49.761,380.858 49.875 C 380.457 49.980,380.567 49.309,381.018 48.901 C 381.943 48.063,380.883 45.690,379.663 45.869 C 379.137 45.947,379.151 45.474,379.691 44.952 C 380.598 44.076,379.647 41.888,378.423 42.031 C 377.811 42.102,377.757 41.308,378.353 40.990 C 378.760 40.772,378.752 40.403,378.333 40.045 C 378.150 39.888,378.000 39.660,378.000 39.538 C 378.000 39.097,377.474 38.315,377.075 38.164 C 376.569 37.971,376.526 37.335,377.000 37.039 C 377.402 36.787,377.427 36.452,377.066 36.152 C 376.919 36.030,376.733 35.759,376.653 35.549 C 376.537 35.244,376.382 35.167,375.879 35.167 C 375.326 35.167,375.250 35.118,375.250 34.766 C 375.250 34.546,375.310 34.402,375.382 34.447 C 376.007 34.833,376.272 32.631,375.667 32.083 C 375.483 31.917,375.333 31.689,375.333 31.575 C 375.333 31.344,374.966 31.167,374.486 31.167 C 374.098 31.167,374.054 30.634,374.417 30.333 C 374.810 30.007,374.753 28.463,374.333 28.083 C 374.150 27.917,374.000 27.681,374.000 27.558 C 374.000 27.434,373.856 27.333,373.680 27.333 C 372.800 27.333,372.610 26.920,373.167 26.212 C 373.647 25.601,373.609 24.660,373.083 24.167 C 372.854 23.951,372.667 23.676,372.667 23.554 C 372.667 23.413,372.457 23.333,372.083 23.333 C 371.391 23.333,371.260 22.769,371.833 22.250 C 372.714 21.453,372.094 20.000,370.873 20.000 C 370.336 20.000,370.166 19.929,370.083 19.667 C 369.966 19.296,358.790 19.162,357.816 19.519 M388.779 20.610 C 388.733 20.656,388.520 20.660,388.306 20.618 L 387.917 20.542 388.292 20.418 C 388.498 20.350,388.675 20.209,388.686 20.106 C 388.697 20.002,388.741 20.054,388.784 20.221 C 388.827 20.389,388.825 20.564,388.779 20.610 M230.784 21.905 C 230.803 21.918,230.664 22.026,230.475 22.144 C 230.211 22.308,230.161 22.310,230.260 22.151 C 230.350 22.006,230.305 21.975,230.111 22.050 C 229.929 22.120,229.833 22.071,229.833 21.908 C 229.833 21.703,230.500 21.700,230.784 21.905 M248.191 28.482 C 247.531 28.900,248.753 30.550,249.875 30.756 C 250.219 30.819,250.500 30.943,250.500 31.031 C 250.500 31.120,250.758 31.170,251.074 31.143 C 251.836 31.077,251.830 31.066,251.854 32.681 C 251.898 35.606,251.849 35.726,250.952 34.875 L 250.470 34.417 250.027 34.934 C 249.783 35.219,249.382 35.500,249.136 35.559 C 248.502 35.713,247.924 36.594,247.920 37.413 L 247.917 38.083 243.875 38.036 L 239.833 37.989 239.833 33.247 L 239.833 28.506 243.708 28.458 C 245.840 28.432,247.771 28.394,248.000 28.374 C 248.288 28.350,248.347 28.383,248.191 28.482 M104.352 29.917 C 104.400 30.306,104.282 30.588,103.984 30.797 C 103.408 31.200,103.906 31.859,105.046 32.200 C 105.523 32.343,105.744 32.529,105.911 32.928 C 106.067 33.303,106.309 33.521,106.717 33.656 C 107.188 33.811,107.319 33.954,107.404 34.407 C 107.627 35.596,109.000 36.465,109.000 35.417 C 109.000 34.938,109.195 34.886,109.571 35.262 C 109.948 35.638,109.895 35.833,109.417 35.833 C 108.820 35.833,108.785 37.667,109.370 38.289 C 109.957 38.914,109.923 46.123,109.329 46.754 L 108.942 47.167 109.283 47.542 C 109.622 47.915,109.887 49.166,109.719 49.604 C 109.588 49.944,109.157 49.882,108.705 49.458 L 108.305 49.083 107.910 49.542 C 107.693 49.795,107.467 50.255,107.409 50.565 C 107.323 51.025,107.185 51.174,106.655 51.383 C 106.099 51.601,105.978 51.743,105.809 52.378 C 105.611 53.115,105.608 53.117,105.073 52.953 C 103.966 52.613,102.858 53.625,103.033 54.815 L 103.097 55.250 98.298 55.203 L 93.500 55.157 93.500 42.504 L 93.500 29.852 94.292 29.799 C 96.291 29.667,104.333 29.761,104.352 29.917 M135.750 29.975 C 135.152 30.072,135.078 30.137,135.033 30.606 C 134.985 31.099,134.163 31.552,133.862 31.251 C 133.816 31.205,133.877 31.167,133.998 31.167 C 134.154 31.167,134.130 31.069,133.917 30.833 C 133.454 30.322,132.393 30.380,131.798 30.951 C 131.539 31.199,131.092 31.480,130.804 31.576 C 130.517 31.672,130.200 31.900,130.099 32.083 C 129.999 32.267,129.850 32.465,129.768 32.525 C 129.686 32.584,129.660 32.790,129.711 32.983 C 129.761 33.176,129.734 33.292,129.651 33.240 C 129.568 33.189,129.500 33.339,129.500 33.573 C 129.500 34.117,129.171 34.120,128.666 33.582 L 128.273 33.165 127.887 33.528 C 127.674 33.728,127.500 34.028,127.500 34.196 C 127.500 34.379,127.379 34.500,127.196 34.500 C 126.704 34.500,126.167 35.203,126.167 35.845 C 126.167 36.348,126.073 36.476,125.406 36.878 C 124.437 37.464,124.386 38.235,125.287 38.685 C 125.916 38.999,125.834 39.167,125.051 39.167 C 124.608 39.167,124.459 39.253,124.333 39.583 C 124.246 39.813,124.103 40.000,124.015 40.000 C 123.651 40.000,123.626 40.718,123.980 40.985 C 124.296 41.223,124.572 43.068,124.314 43.214 C 124.279 43.234,124.028 43.364,123.757 43.503 C 123.075 43.852,123.035 44.103,123.017 48.196 C 122.999 52.120,123.046 52.333,123.929 52.333 C 124.493 52.333,124.554 54.282,124.000 54.628 C 123.817 54.742,123.667 54.936,123.667 55.059 C 123.667 55.181,123.817 55.417,124.000 55.583 C 124.183 55.749,124.333 55.978,124.333 56.091 C 124.333 56.335,124.705 56.500,125.254 56.500 C 125.470 56.500,125.689 56.568,125.740 56.651 C 125.792 56.734,125.691 56.765,125.516 56.719 C 125.122 56.616,124.500 57.203,124.500 57.678 C 124.500 58.327,124.829 58.648,125.793 58.942 C 126.319 59.102,126.772 59.246,126.799 59.263 C 126.826 59.279,126.619 59.522,126.339 59.802 C 125.757 60.384,125.858 60.972,126.597 61.309 C 126.814 61.408,127.100 61.749,127.233 62.068 C 127.423 62.523,127.614 62.685,128.123 62.822 C 128.480 62.918,128.950 63.186,129.168 63.418 C 129.397 63.661,129.834 63.883,130.204 63.942 C 130.622 64.009,130.957 64.196,131.170 64.480 C 131.773 65.286,131.844 65.333,132.465 65.333 C 133.165 65.332,134.167 64.797,134.167 64.424 C 134.167 64.259,134.263 64.213,134.458 64.285 C 134.857 64.432,134.994 64.668,134.997 65.208 C 134.999 65.480,135.091 65.667,135.224 65.667 C 135.347 65.667,135.584 65.817,135.750 66.000 C 135.916 66.183,136.152 66.333,136.274 66.333 C 136.397 66.333,136.591 66.183,136.705 66.000 C 136.905 65.681,137.094 65.667,141.129 65.667 C 144.763 65.667,145.357 65.631,145.442 65.411 C 145.879 64.272,146.875 63.980,147.371 64.846 C 147.825 65.636,148.554 65.533,149.119 64.599 L 149.562 63.864 150.443 63.955 C 151.286 64.042,151.335 64.025,151.610 63.544 C 151.802 63.210,152.095 62.994,152.491 62.896 C 152.968 62.778,153.120 62.637,153.271 62.167 C 153.396 61.778,153.576 61.566,153.811 61.530 C 154.249 61.464,154.667 60.891,154.667 60.357 C 154.667 60.136,154.845 59.789,155.064 59.587 C 155.283 59.384,155.581 58.807,155.727 58.304 C 155.873 57.801,156.182 57.186,156.413 56.936 C 156.945 56.363,156.994 55.277,156.512 54.761 C 155.859 54.061,155.901 53.583,156.614 53.583 C 157.456 53.583,157.458 53.569,157.471 48.000 C 157.483 42.539,157.437 42.157,156.756 41.975 C 156.425 41.887,156.216 41.910,156.118 42.047 C 156.031 42.169,156.017 42.050,156.082 41.750 C 156.142 41.475,156.336 41.095,156.512 40.906 C 157.007 40.376,156.953 39.170,156.411 38.662 C 156.178 38.443,155.872 37.852,155.726 37.341 C 155.582 36.833,155.284 36.225,155.065 35.991 C 154.846 35.757,154.667 35.397,154.667 35.192 C 154.667 34.765,153.976 34.000,153.591 34.000 C 153.449 34.000,153.333 33.884,153.333 33.742 C 153.333 33.340,152.560 32.667,152.098 32.667 C 151.869 32.667,151.497 32.482,151.271 32.256 C 151.045 32.030,150.515 31.758,150.094 31.652 C 149.672 31.546,149.056 31.243,148.724 30.979 C 147.981 30.389,147.008 30.325,146.500 30.833 C 146.038 31.296,145.501 31.273,145.497 30.792 C 145.491 29.915,145.509 29.919,140.798 29.892 C 138.388 29.878,136.117 29.915,135.750 29.975 M175.668 29.957 C 175.034 30.033,174.840 30.224,174.836 30.774 C 174.833 31.116,174.097 31.486,173.869 31.258 C 173.819 31.208,173.903 31.167,174.056 31.167 C 174.387 31.167,174.409 30.995,174.125 30.627 C 173.734 30.119,172.767 30.254,172.581 30.842 C 172.524 31.021,172.408 31.167,172.322 31.167 C 172.237 31.167,172.167 31.464,172.167 31.827 C 172.167 32.318,172.081 32.534,171.833 32.667 C 171.636 32.772,171.500 32.780,171.500 32.686 C 171.500 32.599,171.594 32.494,171.708 32.452 C 172.014 32.341,171.659 31.802,171.099 31.527 C 170.849 31.405,170.601 31.180,170.547 31.027 C 170.197 30.035,169.014 29.822,168.534 30.666 L 168.250 31.165 164.708 31.166 C 161.852 31.166,161.167 31.123,161.167 30.942 C 161.167 29.805,159.411 29.975,159.021 31.150 C 158.737 32.008,158.756 63.866,159.042 64.377 C 159.584 65.347,160.102 65.577,160.723 65.124 C 161.044 64.889,161.225 63.688,160.983 63.397 C 160.660 63.007,161.043 62.491,161.490 62.715 C 162.027 62.984,162.277 63.833,161.819 63.833 C 161.644 63.833,161.500 63.947,161.500 64.085 C 161.500 64.304,162.099 64.335,166.065 64.325 L 170.629 64.313 170.731 63.802 C 170.787 63.521,170.833 58.997,170.833 53.748 L 170.833 44.205 171.250 43.932 C 171.479 43.782,171.667 43.549,171.667 43.415 C 171.667 43.281,171.967 42.981,172.333 42.750 C 172.700 42.519,173.000 42.219,173.000 42.083 C 173.000 41.948,173.300 41.648,173.667 41.417 C 174.033 41.185,174.333 40.885,174.333 40.750 C 174.333 40.598,174.620 40.433,175.086 40.315 C 175.500 40.211,175.886 40.050,175.942 39.958 C 175.999 39.866,176.189 40.104,176.364 40.486 C 176.761 41.352,177.284 41.622,178.085 41.376 C 178.447 41.265,178.667 41.259,178.667 41.359 C 178.667 41.447,178.736 41.477,178.822 41.424 C 178.907 41.371,179.031 41.416,179.098 41.523 C 179.173 41.645,179.146 41.674,179.026 41.599 C 178.920 41.534,178.833 41.568,178.833 41.675 C 178.833 41.808,179.020 41.835,179.417 41.761 C 180.050 41.642,180.345 42.499,179.750 42.727 C 179.612 42.780,179.500 42.978,179.500 43.167 C 179.500 43.356,179.612 43.554,179.750 43.606 C 180.201 43.779,180.119 63.674,179.665 64.085 C 179.352 64.368,179.348 64.407,179.608 64.694 C 179.968 65.092,180.258 65.081,180.554 64.658 C 180.785 64.328,180.940 64.316,185.078 64.327 C 188.465 64.336,189.348 64.295,189.293 64.128 C 189.255 64.012,189.072 63.894,188.887 63.867 C 188.456 63.803,188.554 63.072,189.027 62.819 C 190.111 62.239,191.047 63.033,190.181 63.797 C 189.911 64.036,189.859 64.138,190.042 64.071 C 190.202 64.012,190.333 64.031,190.333 64.113 C 190.333 64.195,190.175 64.274,189.981 64.289 C 189.110 64.355,189.618 65.392,190.559 65.469 C 191.921 65.581,191.833 66.368,191.833 54.015 C 191.833 42.506,191.819 42.267,191.053 41.469 C 190.431 40.819,190.408 38.881,191.014 38.235 L 191.391 37.833 191.054 37.458 C 190.868 37.252,190.668 36.946,190.608 36.779 C 190.524 36.541,190.356 36.485,189.836 36.522 C 189.444 36.551,189.084 36.480,188.960 36.351 C 188.787 36.171,188.845 36.151,189.281 36.243 C 190.555 36.511,191.034 34.421,189.772 34.104 C 189.549 34.048,189.212 33.739,189.023 33.418 C 188.823 33.079,188.546 32.833,188.364 32.833 C 188.155 32.833,187.967 32.619,187.798 32.190 C 187.617 31.728,187.417 31.515,187.087 31.433 C 186.836 31.369,186.384 31.058,186.085 30.740 C 185.415 30.030,184.500 30.204,184.500 31.041 C 184.500 31.326,184.424 31.360,183.979 31.271 C 183.693 31.214,183.280 31.167,183.063 31.167 C 182.724 31.167,182.667 31.085,182.667 30.604 C 182.667 30.108,182.606 30.029,182.146 29.938 C 181.587 29.826,176.632 29.841,175.668 29.957 M205.583 29.945 C 204.816 30.114,204.338 30.391,204.233 30.726 C 204.107 31.130,203.866 31.328,203.500 31.328 C 203.291 31.328,203.288 31.304,203.483 31.181 C 203.738 31.019,203.042 30.167,202.655 30.167 C 202.230 30.167,201.334 31.387,201.316 31.991 L 201.298 32.583 201.120 32.133 C 200.730 31.148,199.138 31.160,198.920 32.150 C 198.849 32.476,198.672 32.645,198.286 32.759 C 197.892 32.875,197.710 33.054,197.597 33.435 C 197.489 33.803,197.287 34.010,196.901 34.150 C 196.499 34.295,196.328 34.479,196.245 34.854 C 196.167 35.211,195.994 35.411,195.662 35.526 C 194.777 35.835,194.710 37.168,195.563 37.492 C 196.209 37.738,196.191 37.928,195.528 37.866 C 195.021 37.820,194.810 37.908,194.292 38.386 C 193.539 39.079,193.526 39.218,194.153 39.846 C 194.421 40.113,194.683 40.576,194.736 40.874 C 194.805 41.260,194.791 41.320,194.689 41.083 C 194.555 40.773,194.504 40.795,193.944 41.402 L 193.343 42.055 193.380 46.902 L 193.417 51.750 193.015 52.098 L 192.613 52.446 192.947 52.780 C 193.137 52.970,193.327 53.455,193.389 53.904 C 193.531 54.937,193.581 55.000,194.271 55.000 C 194.935 55.000,194.945 55.404,194.299 56.110 C 193.971 56.469,193.971 56.471,194.318 56.818 C 194.510 57.010,194.667 57.278,194.667 57.413 C 194.667 57.705,195.332 57.904,195.926 57.791 C 196.430 57.694,196.369 57.772,195.652 58.140 C 194.691 58.632,194.722 59.594,195.717 60.154 C 195.973 60.298,196.275 60.603,196.386 60.830 C 196.498 61.057,196.762 61.329,196.972 61.434 C 197.183 61.539,197.481 61.876,197.636 62.183 C 197.805 62.518,198.082 62.778,198.332 62.836 C 198.560 62.888,198.826 63.089,198.922 63.281 C 199.242 63.923,199.537 64.167,199.995 64.167 C 200.440 64.167,201.000 63.729,201.000 63.380 C 201.000 63.282,201.095 63.166,201.211 63.121 C 201.364 63.063,201.405 63.216,201.360 63.687 C 201.307 64.241,201.345 64.333,201.629 64.333 C 201.811 64.333,202.066 64.493,202.195 64.689 C 202.473 65.107,203.090 65.003,203.247 64.511 C 203.440 63.900,204.159 64.254,204.164 64.962 C 204.168 65.599,204.742 65.667,210.164 65.667 C 215.928 65.667,215.833 65.679,215.833 64.917 C 215.833 64.196,216.230 64.045,216.701 64.587 C 217.180 65.138,218.614 65.186,219.084 64.666 C 219.250 64.482,219.679 64.253,220.036 64.157 C 220.584 64.010,220.736 63.865,221.004 63.241 C 221.297 62.557,221.368 62.500,221.932 62.500 C 222.906 62.500,225.000 60.298,225.000 59.274 C 225.000 59.046,225.188 58.636,225.417 58.364 C 226.004 57.666,226.017 56.295,225.440 55.917 C 224.940 55.589,225.031 54.877,225.600 54.660 C 226.359 54.372,226.314 53.277,225.528 52.919 C 225.329 52.828,225.167 52.693,225.167 52.619 C 225.167 52.545,223.099 52.500,220.573 52.519 L 215.979 52.555 216.024 53.072 C 216.084 53.775,215.934 53.957,215.363 53.873 C 214.306 53.718,213.333 54.694,213.333 55.908 C 213.333 56.602,212.917 56.719,212.417 56.167 C 212.251 55.983,212.015 55.833,211.892 55.833 C 211.770 55.833,211.576 55.983,211.461 56.167 C 211.117 56.717,209.064 56.657,208.805 56.088 C 208.695 55.846,208.375 55.596,208.029 55.482 C 207.320 55.248,206.648 54.504,206.406 53.685 C 206.194 52.968,205.417 52.501,204.437 52.500 L 203.790 52.500 203.888 51.896 C 203.942 51.564,204.033 51.245,204.090 51.188 C 204.147 51.130,208.761 51.083,214.342 51.083 L 224.491 51.083 224.853 51.446 L 225.216 51.809 225.858 51.293 L 226.500 50.778 226.500 47.378 C 226.500 43.767,226.420 43.333,225.754 43.333 C 225.023 43.333,224.811 41.474,225.490 41.021 C 225.927 40.731,225.931 40.231,225.500 40.000 C 225.317 39.902,225.167 39.674,225.167 39.494 C 225.167 39.228,225.050 39.166,224.542 39.161 C 223.955 39.156,223.937 39.142,224.250 38.917 C 224.907 38.446,225.000 38.314,225.000 37.853 C 225.000 37.123,223.916 36.401,223.018 36.533 C 222.609 36.593,222.544 36.564,222.691 36.387 C 222.792 36.266,222.975 36.167,223.098 36.167 C 223.383 36.167,223.667 35.641,223.667 35.115 C 223.667 34.699,223.409 34.402,222.775 34.086 C 222.580 33.988,222.392 33.760,222.359 33.579 C 222.263 33.062,222.014 32.851,221.358 32.731 C 221.024 32.669,220.504 32.405,220.203 32.143 C 219.901 31.881,219.503 31.667,219.317 31.667 C 218.801 31.667,218.335 31.358,218.162 30.904 C 217.858 30.104,216.414 30.073,215.573 30.849 C 214.970 31.405,214.500 31.183,214.500 30.342 C 214.500 30.127,214.326 30.015,213.875 29.940 C 213.180 29.825,206.109 29.830,205.583 29.945 M278.250 29.982 C 277.710 30.064,277.536 30.184,277.333 30.615 C 277.105 31.100,276.429 31.485,276.203 31.258 C 276.152 31.208,276.236 31.167,276.389 31.167 C 276.859 31.167,276.671 30.681,276.083 30.378 C 275.650 30.155,275.061 30.380,274.920 30.823 C 274.860 31.012,274.741 31.167,274.655 31.167 C 274.570 31.167,274.500 31.467,274.500 31.833 C 274.500 32.200,274.425 32.500,274.333 32.500 C 274.242 32.500,274.167 32.359,274.167 32.187 C 274.167 31.082,272.252 31.178,271.962 32.298 C 271.873 32.644,271.674 32.902,271.424 32.997 C 271.207 33.080,270.980 33.302,270.920 33.490 C 270.860 33.679,270.732 33.833,270.636 33.833 C 270.539 33.833,270.497 34.021,270.542 34.256 C 270.586 34.488,270.582 34.637,270.532 34.588 C 270.482 34.538,270.286 34.632,270.096 34.798 C 269.906 34.963,269.450 35.198,269.083 35.320 C 268.208 35.612,268.000 35.793,268.000 36.266 C 268.000 36.533,267.841 36.740,267.502 36.915 C 266.675 37.343,266.674 38.488,267.500 38.750 C 267.926 38.885,267.936 39.333,267.512 39.333 C 267.048 39.333,266.724 39.726,266.590 40.450 C 266.526 40.798,266.316 41.252,266.124 41.458 L 265.775 41.833 266.120 42.208 C 266.652 42.786,266.863 46.000,266.370 46.000 C 265.512 46.000,265.239 46.723,265.319 48.780 C 265.338 49.262,265.764 49.667,266.251 49.667 L 266.646 49.667 266.614 52.140 C 266.590 54.108,266.537 54.610,266.356 54.598 C 266.232 54.590,266.051 54.704,265.955 54.851 C 265.670 55.292,266.602 56.333,267.282 56.333 C 267.984 56.333,268.129 56.599,267.495 56.726 C 266.441 56.937,266.409 58.293,267.447 58.792 C 267.943 59.030,268.095 59.227,268.281 59.874 C 268.420 60.354,268.668 60.769,268.911 60.928 C 269.132 61.073,269.360 61.410,269.419 61.677 C 269.587 62.440,270.200 62.829,270.958 62.653 C 271.302 62.573,271.628 62.506,271.682 62.504 C 271.736 62.502,271.870 62.799,271.979 63.164 C 272.185 63.849,272.557 64.167,273.157 64.167 C 273.347 64.167,273.665 64.354,273.864 64.583 C 274.388 65.185,275.777 65.187,276.299 64.587 C 276.770 64.045,277.135 64.201,277.199 64.973 L 277.250 65.583 282.715 65.627 C 288.662 65.675,288.734 65.665,288.906 64.750 C 289.025 64.112,289.259 64.117,289.504 64.762 C 289.786 65.503,290.825 65.490,291.239 64.739 C 291.337 64.562,291.482 64.369,291.562 64.311 C 291.642 64.253,291.677 63.942,291.639 63.621 C 291.590 63.195,291.629 63.060,291.786 63.120 C 291.904 63.165,292.000 63.295,292.000 63.409 C 292.000 64.422,293.541 64.396,294.064 63.375 C 294.224 63.064,294.471 62.833,294.645 62.833 C 295.017 62.833,295.500 62.326,295.500 61.937 C 295.500 61.769,295.702 61.579,295.984 61.481 C 296.263 61.383,296.550 61.115,296.660 60.849 C 296.766 60.594,297.091 60.280,297.383 60.151 C 298.427 59.690,298.358 58.075,297.295 58.089 C 296.685 58.097,296.875 57.894,297.606 57.757 C 299.229 57.452,299.840 56.190,298.661 55.580 C 298.116 55.298,298.148 54.916,298.729 54.770 C 299.562 54.561,299.662 53.910,299.656 48.728 C 299.651 44.022,299.656 43.950,300.021 43.561 L 300.391 43.167 300.044 42.792 C 299.853 42.585,299.610 42.092,299.505 41.696 C 299.350 41.112,299.205 40.929,298.745 40.737 C 298.119 40.476,298.114 40.216,298.721 39.542 L 299.058 39.167 298.696 38.781 C 298.496 38.569,298.333 38.314,298.333 38.215 C 298.333 37.984,297.934 37.833,297.320 37.833 C 296.760 37.833,296.652 37.585,297.194 37.544 C 298.275 37.462,298.381 35.500,297.304 35.500 C 297.095 35.500,296.899 35.298,296.740 34.920 C 296.580 34.537,296.351 34.302,296.064 34.230 C 295.785 34.160,295.549 33.927,295.402 33.575 C 295.241 33.188,295.003 32.972,294.587 32.835 C 294.264 32.728,294.000 32.540,294.000 32.416 C 294.000 32.181,293.234 31.500,292.970 31.500 C 292.607 31.500,291.946 32.363,292.184 32.526 C 292.363 32.648,292.340 32.673,292.083 32.633 C 291.830 32.593,291.738 32.430,291.698 31.957 C 291.670 31.614,291.582 31.333,291.503 31.333 C 291.424 31.333,291.134 31.144,290.859 30.913 L 290.359 30.492 289.889 30.928 C 289.504 31.284,289.312 31.346,288.834 31.267 C 288.513 31.214,288.124 31.170,287.969 31.169 C 287.775 31.167,287.672 31.001,287.636 30.632 C 287.596 30.225,287.483 30.069,287.167 29.981 C 286.657 29.841,279.176 29.841,278.250 29.982 M298.833 30.333 C 298.492 30.674,298.386 31.563,298.639 31.961 C 298.850 32.294,299.836 32.535,299.717 32.225 C 299.657 32.069,299.752 31.947,299.978 31.887 C 300.174 31.836,300.333 31.724,300.333 31.637 C 300.333 31.551,300.259 31.526,300.169 31.582 C 300.075 31.640,300.046 31.574,300.102 31.428 C 300.171 31.249,300.282 31.217,300.475 31.320 C 300.795 31.491,300.843 31.500,301.480 31.500 C 301.953 31.500,301.958 31.509,301.767 32.064 C 301.452 32.980,301.230 33.150,300.448 33.075 C 299.925 33.024,299.813 33.051,300.000 33.183 C 300.222 33.339,300.222 33.351,300.000 33.286 C 299.862 33.247,299.759 33.098,299.770 32.956 C 299.804 32.541,298.916 32.936,298.687 33.439 C 298.400 34.068,298.758 34.681,299.595 34.995 C 300.259 35.244,300.271 35.262,300.125 35.818 C 299.905 36.660,300.093 37.153,300.736 37.422 C 301.096 37.572,301.332 37.807,301.402 38.083 C 301.461 38.319,301.695 38.596,301.921 38.699 C 302.148 38.802,302.333 38.958,302.333 39.044 C 302.333 39.131,302.633 39.173,303.000 39.138 C 303.785 39.063,303.871 39.229,303.173 39.473 C 302.093 39.849,302.314 41.270,303.512 41.667 C 304.257 41.913,304.266 41.925,304.113 42.447 C 303.896 43.192,304.070 43.704,304.660 44.053 C 304.948 44.223,305.167 44.492,305.167 44.676 C 305.167 45.202,305.749 45.635,306.613 45.750 C 307.863 45.918,307.986 45.995,307.400 46.244 C 306.665 46.556,306.369 48.195,306.829 49.406 C 306.960 49.749,306.942 49.833,306.738 49.833 C 305.301 49.833,304.720 51.695,306.015 52.147 C 306.720 52.393,306.608 52.471,305.409 52.569 C 304.408 52.650,303.833 53.025,303.833 53.598 C 303.833 53.723,303.605 53.943,303.326 54.087 C 302.333 54.601,302.338 55.909,303.333 56.108 C 303.730 56.188,303.799 56.257,303.655 56.431 C 303.542 56.567,303.292 56.617,303.009 56.560 C 302.366 56.431,301.515 56.908,301.303 57.516 C 301.208 57.788,300.915 58.122,300.651 58.258 C 300.079 58.554,299.897 59.133,300.149 59.855 C 300.251 60.146,300.333 60.400,300.333 60.421 C 300.333 60.441,300.122 60.501,299.865 60.552 C 298.770 60.771,298.269 61.784,298.907 62.489 C 299.234 62.850,299.846 63.060,299.736 62.773 C 299.687 62.647,299.943 62.583,300.500 62.583 C 301.349 62.583,301.698 62.879,301.406 63.350 C 301.343 63.453,301.367 63.585,301.459 63.644 C 301.552 63.702,301.380 63.877,301.078 64.031 C 300.464 64.345,299.456 63.809,299.754 63.327 C 299.952 63.007,298.966 63.287,298.708 63.624 C 298.431 63.987,298.444 64.859,298.731 65.253 C 299.209 65.906,301.504 65.539,301.862 64.753 L 302.054 64.333 305.568 64.314 C 307.553 64.302,308.866 64.239,308.583 64.167 L 308.083 64.039 308.583 64.008 C 308.910 63.987,308.997 63.937,308.833 63.863 C 308.098 63.530,309.005 62.744,309.871 62.964 C 310.147 63.034,310.197 63.525,309.954 63.768 C 309.893 63.829,309.875 63.718,309.912 63.523 C 309.950 63.327,309.910 63.167,309.824 63.167 C 309.737 63.167,309.667 63.242,309.667 63.333 C 309.667 63.648,309.616 63.750,309.350 63.971 C 309.203 64.092,309.172 64.147,309.280 64.093 C 309.388 64.039,309.525 64.073,309.584 64.168 C 309.643 64.264,309.592 64.321,309.471 64.296 C 309.019 64.202,309.212 65.227,309.689 65.456 C 310.637 65.910,311.500 65.361,311.500 64.303 C 311.500 64.115,311.714 63.717,311.975 63.420 C 312.259 63.097,312.496 62.589,312.565 62.161 C 312.641 61.683,312.873 61.229,313.257 60.804 C 313.574 60.453,313.833 60.011,313.833 59.822 C 313.833 59.301,314.140 58.835,314.598 58.661 C 314.824 58.575,315.056 58.373,315.113 58.211 C 315.490 57.156,316.213 57.447,316.057 58.590 C 315.940 59.437,316.175 59.825,317.011 60.171 C 317.482 60.366,317.495 60.401,317.397 61.234 C 317.291 62.139,317.393 62.328,318.209 62.743 C 318.420 62.851,318.625 63.215,318.747 63.699 C 319.059 64.940,319.159 65.000,320.911 65.000 C 322.237 65.000,322.490 64.954,322.750 64.667 C 323.185 64.186,328.953 64.148,329.101 64.625 C 329.330 65.369,329.425 65.416,330.791 65.465 C 332.333 65.520,332.667 65.334,332.667 64.417 C 332.667 63.762,332.304 63.333,331.749 63.333 C 331.259 63.333,331.322 62.573,331.842 62.208 C 332.276 61.905,332.251 61.633,331.750 61.198 C 331.513 60.992,331.333 60.656,331.333 60.418 C 331.333 59.631,330.733 59.285,329.083 59.122 L 328.583 59.072 329.202 58.797 C 330.289 58.314,330.236 57.047,329.115 56.677 C 328.620 56.514,328.526 56.396,328.434 55.823 C 328.369 55.416,328.135 54.956,327.831 54.638 C 327.557 54.351,327.333 53.984,327.333 53.822 C 327.333 53.040,326.542 52.500,325.396 52.500 C 324.737 52.500,324.655 52.226,325.245 52.002 C 326.079 51.685,325.990 50.669,325.086 50.168 C 324.742 49.977,324.565 49.697,324.415 49.108 C 324.100 47.869,323.293 47.399,323.053 48.315 C 322.895 48.920,322.370 48.539,322.307 47.773 L 322.250 47.076 322.811 47.142 C 323.119 47.178,323.419 47.140,323.478 47.058 C 323.536 46.976,323.790 46.778,324.042 46.617 C 324.294 46.457,324.500 46.211,324.500 46.071 C 324.500 45.931,324.750 45.712,325.055 45.584 C 326.195 45.108,326.327 44.203,325.350 43.547 L 324.784 43.167 325.312 43.167 C 326.045 43.167,327.097 42.468,327.241 41.886 C 327.305 41.628,327.575 41.216,327.841 40.971 C 328.148 40.689,328.363 40.290,328.428 39.881 C 328.512 39.357,328.646 39.175,329.140 38.910 C 329.575 38.676,329.808 38.401,329.957 37.946 C 330.072 37.595,330.389 37.086,330.660 36.814 C 330.932 36.543,331.202 36.064,331.261 35.750 C 331.338 35.339,331.525 35.087,331.929 34.848 C 332.889 34.282,332.767 32.680,331.777 32.869 C 331.500 32.922,331.417 32.857,331.417 32.587 C 331.417 32.306,331.501 32.249,331.843 32.299 C 332.479 32.393,332.741 31.951,332.686 30.879 C 332.635 29.888,330.805 29.721,330.472 30.676 L 330.301 31.167 326.192 31.169 C 323.932 31.170,321.933 31.197,321.750 31.228 C 321.567 31.260,321.510 31.253,321.625 31.214 C 322.005 31.083,321.657 30.399,321.167 30.312 C 320.648 30.220,320.212 30.528,319.859 31.234 C 319.659 31.635,319.384 32.056,319.247 32.169 C 318.915 32.445,318.936 32.768,319.303 33.032 C 319.934 33.486,319.882 33.833,319.182 33.833 C 318.815 33.833,318.452 33.940,318.333 34.083 C 318.219 34.221,318.025 34.333,317.902 34.333 C 317.141 34.333,317.183 35.589,317.958 36.047 L 318.583 36.417 317.792 36.467 C 317.356 36.495,317.000 36.584,317.000 36.665 C 317.000 36.745,316.849 36.859,316.665 36.917 C 316.481 36.976,316.208 37.262,316.060 37.553 C 315.708 38.246,315.747 38.221,315.348 38.008 C 315.086 37.868,315.000 37.660,315.000 37.167 C 315.000 36.666,314.884 36.393,314.508 36.008 C 314.229 35.723,313.967 35.233,313.902 34.877 C 313.758 34.081,313.416 33.401,313.099 33.279 C 312.963 33.227,312.804 32.899,312.745 32.550 C 312.488 31.034,312.021 30.500,310.950 30.500 C 310.169 30.500,309.403 31.018,309.865 31.234 C 309.985 31.291,309.830 31.298,309.521 31.252 C 309.211 31.205,307.130 31.167,304.896 31.167 C 301.396 31.167,300.833 31.132,300.833 30.917 C 300.833 30.499,300.198 30.000,299.667 30.000 C 299.389 30.000,299.019 30.148,298.833 30.333 M161.134 31.367 C 161.244 31.478,161.605 31.550,161.936 31.528 C 162.488 31.490,162.515 31.509,162.268 31.755 C 162.121 31.903,162.000 32.129,162.000 32.258 C 162.000 32.697,161.217 33.075,160.921 32.778 C 160.644 32.502,160.575 32.257,160.816 32.406 C 160.898 32.457,161.011 32.378,161.068 32.230 C 161.145 32.029,161.098 31.988,160.877 32.065 C 160.598 32.162,160.598 32.156,160.875 31.940 C 161.220 31.672,161.260 31.475,160.944 31.596 C 160.818 31.644,160.722 31.570,160.722 31.424 C 160.722 31.115,160.862 31.096,161.134 31.367 M169.051 32.137 C 169.093 32.358,169.035 32.561,168.914 32.607 C 168.798 32.652,168.741 32.832,168.787 33.007 C 168.942 33.599,167.902 32.901,167.540 32.171 L 167.217 31.517 167.734 31.467 C 168.434 31.399,168.961 31.666,169.051 32.137 M322.740 31.745 C 322.324 32.060,322.167 32.061,322.167 31.750 C 322.167 31.590,322.328 31.500,322.615 31.500 C 323.045 31.500,323.050 31.510,322.740 31.745 M132.215 32.333 C 132.263 32.516,132.222 32.715,132.125 32.776 C 132.021 32.840,131.997 32.806,132.067 32.692 C 132.133 32.587,132.109 32.500,132.015 32.500 C 131.921 32.500,131.887 32.387,131.940 32.250 C 132.066 31.921,132.111 31.934,132.215 32.333 M364.167 34.585 C 364.167 35.130,364.258 35.415,364.500 35.622 C 364.683 35.779,364.833 36.041,364.833 36.204 C 364.833 36.449,364.980 36.500,365.687 36.500 C 366.362 36.500,366.504 36.545,366.364 36.713 C 366.266 36.831,366.191 37.248,366.196 37.640 C 366.203 38.147,366.104 38.462,365.853 38.729 C 365.421 39.189,365.419 39.244,365.817 39.619 C 365.991 39.782,366.199 40.254,366.278 40.667 C 366.404 41.318,366.494 41.438,366.961 41.576 C 367.539 41.747,367.737 42.420,367.263 42.601 C 366.881 42.748,366.803 43.191,367.102 43.520 C 367.254 43.688,367.425 43.796,367.484 43.760 C 367.542 43.724,367.562 43.980,367.529 44.329 C 367.455 45.103,367.708 45.619,368.208 45.716 C 368.414 45.755,366.804 45.798,364.630 45.811 C 360.280 45.836,360.412 45.873,361.199 44.848 C 361.500 44.455,361.500 44.438,361.170 44.087 C 360.670 43.554,360.742 43.200,361.375 43.077 C 362.105 42.936,362.833 41.987,362.833 41.177 C 362.833 40.516,362.412 39.765,362.137 39.935 C 362.020 40.007,362.003 39.803,362.083 39.313 C 362.204 38.570,362.715 37.833,363.109 37.833 C 363.438 37.833,363.554 37.110,363.429 35.843 C 363.292 34.451,363.422 33.833,363.851 33.833 C 364.114 33.833,364.167 33.959,364.167 34.585 M199.572 34.185 C 199.494 34.311,199.583 34.331,199.854 34.249 C 200.178 34.151,200.212 34.169,200.042 34.348 C 199.793 34.609,199.763 34.896,200.000 34.750 C 200.264 34.587,200.194 34.937,199.917 35.167 C 199.717 35.332,199.667 35.332,199.667 35.167 C 199.667 35.001,199.616 35.001,199.417 35.167 C 199.257 35.300,199.167 35.310,199.167 35.195 C 199.167 35.097,199.298 34.943,199.458 34.852 C 199.692 34.720,199.709 34.646,199.542 34.477 C 199.287 34.220,199.272 34.000,199.510 34.000 C 199.607 34.000,199.635 34.083,199.572 34.185 M128.167 34.934 C 128.167 35.262,128.102 35.344,127.903 35.268 C 127.758 35.212,127.608 35.167,127.570 35.167 C 127.531 35.167,127.500 35.017,127.500 34.833 C 127.500 34.611,127.611 34.500,127.833 34.500 C 128.081 34.500,128.167 34.611,128.167 34.934 M250.548 36.167 C 250.500 36.350,250.395 36.500,250.314 36.500 C 250.140 36.500,250.134 36.447,250.268 36.097 C 250.415 35.714,250.651 35.773,250.548 36.167 M329.500 36.500 C 329.500 36.592,329.294 36.661,329.042 36.655 C 328.636 36.645,328.621 36.627,328.917 36.500 C 329.372 36.304,329.500 36.304,329.500 36.500 M317.017 39.216 C 316.803 39.430,316.586 39.265,316.745 39.008 C 316.806 38.909,316.933 38.875,317.026 38.933 C 317.140 39.003,317.137 39.096,317.017 39.216 M138.083 39.167 C 138.140 39.258,138.032 39.333,137.843 39.333 C 137.654 39.333,137.500 39.258,137.500 39.167 C 137.500 39.075,137.608 39.000,137.740 39.000 C 137.872 39.000,138.027 39.075,138.083 39.167 M142.944 39.572 C 142.889 39.716,142.691 39.833,142.505 39.833 C 141.991 39.833,142.063 40.561,142.620 40.999 C 142.870 41.195,143.151 41.595,143.245 41.886 C 143.370 42.272,143.609 42.506,144.125 42.746 C 144.809 43.063,144.833 43.102,144.833 43.845 C 144.833 44.398,144.925 44.698,145.160 44.911 C 145.707 45.405,145.749 51.616,145.208 52.054 C 144.676 52.485,144.701 53.167,145.250 53.167 C 145.556 53.167,145.667 53.256,145.667 53.500 C 145.667 53.744,145.556 53.833,145.250 53.833 C 144.944 53.833,144.833 53.744,144.833 53.500 C 144.833 53.269,144.722 53.167,144.471 53.167 C 143.840 53.167,143.500 53.638,143.500 54.510 C 143.500 55.235,143.470 55.294,143.147 55.210 C 142.822 55.125,142.799 55.173,142.860 55.809 C 142.936 56.607,142.485 56.785,141.955 56.167 C 141.598 55.749,141.461 55.749,141.083 56.167 C 140.888 56.383,140.570 56.500,140.181 56.500 C 139.761 56.500,139.518 56.400,139.372 56.167 C 139.089 55.713,138.167 55.699,138.167 56.149 C 138.167 56.413,137.718 56.778,137.575 56.629 C 137.336 56.379,137.469 55.909,137.792 55.863 C 138.340 55.786,138.313 54.937,137.750 54.568 C 137.521 54.418,137.333 54.149,137.333 53.970 C 137.333 53.157,136.442 52.500,135.339 52.500 L 134.833 52.500 134.833 48.886 C 134.833 45.404,134.847 45.257,135.196 44.886 L 135.558 44.500 135.196 44.114 C 134.673 43.558,134.722 43.167,135.313 43.167 C 136.134 43.167,137.018 42.697,137.224 42.150 C 137.333 41.862,137.571 41.613,137.793 41.558 C 138.248 41.443,138.667 40.894,138.667 40.411 C 138.667 39.428,140.420 38.768,141.083 39.500 C 141.481 39.940,142.167 39.948,142.167 39.512 C 142.167 39.178,142.642 38.964,142.897 39.184 C 142.978 39.254,142.999 39.428,142.944 39.572 M211.628 39.555 C 211.837 39.744,212.053 40.187,212.110 40.543 C 212.236 41.335,212.545 41.667,213.156 41.667 C 213.745 41.667,214.782 42.477,214.701 42.875 C 214.647 43.145,214.285 43.166,209.863 43.159 C 205.237 43.151,205.102 43.142,205.667 42.866 C 206.041 42.683,206.270 42.443,206.305 42.193 C 206.342 41.936,206.550 41.726,206.923 41.570 C 207.367 41.385,207.531 41.184,207.696 40.626 C 208.128 39.167,210.490 38.524,211.628 39.555 M213.386 39.231 C 213.448 39.393,213.379 39.437,213.156 39.379 C 212.981 39.333,212.878 39.229,212.928 39.148 C 213.064 38.928,213.286 38.969,213.386 39.231 M285.035 39.448 C 284.805 40.648,286.127 42.015,287.274 41.763 C 287.728 41.664,287.751 41.688,287.780 42.288 C 287.797 42.634,287.771 42.820,287.722 42.701 C 287.655 42.536,287.580 42.531,287.400 42.680 C 287.103 42.927,287.100 43.404,287.395 43.649 C 287.521 43.753,287.676 44.295,287.739 44.852 C 287.890 46.192,288.075 46.632,288.580 46.862 C 289.268 47.175,289.186 48.423,288.425 49.230 C 287.949 49.734,287.830 50.012,287.737 50.830 C 287.665 51.469,287.517 51.917,287.318 52.097 C 286.971 52.411,287.149 53.000,287.592 53.000 C 287.761 53.000,287.827 53.151,287.802 53.480 C 287.768 53.929,287.728 53.954,287.168 53.879 C 285.827 53.699,285.000 54.568,285.000 56.157 C 285.000 56.604,284.483 56.611,284.205 56.167 C 284.091 55.983,283.897 55.833,283.774 55.833 C 283.652 55.833,283.416 55.983,283.250 56.167 C 282.589 56.898,280.833 56.145,280.833 55.131 C 280.833 54.614,280.540 54.213,280.077 54.097 C 279.797 54.026,279.584 53.812,279.471 53.489 C 279.273 52.920,278.462 52.500,277.563 52.500 C 277.031 52.500,277.000 52.468,276.996 51.917 C 276.995 51.596,276.993 49.758,276.993 47.833 C 276.993 45.908,276.995 44.071,276.996 43.750 C 277.000 43.240,277.052 43.167,277.417 43.167 C 277.646 43.167,277.833 43.239,277.833 43.327 C 277.833 44.301,279.071 43.549,279.290 42.443 C 279.398 41.900,279.511 41.749,279.889 41.648 C 280.637 41.448,280.813 41.196,280.931 40.160 C 281.059 39.022,280.922 39.083,283.337 39.083 C 285.066 39.083,285.103 39.091,285.035 39.448 M144.206 40.731 C 144.402 41.029,144.352 41.196,144.125 41.001 C 144.010 40.902,143.767 40.708,143.583 40.569 C 143.261 40.324,143.264 40.320,143.667 40.431 C 143.896 40.493,144.138 40.629,144.206 40.731 M326.833 40.583 C 326.719 40.721,326.470 40.833,326.280 40.833 C 325.873 40.833,326.081 40.573,326.583 40.452 C 326.767 40.408,326.945 40.363,326.979 40.353 C 327.013 40.342,326.947 40.446,326.833 40.583 M145.667 42.167 C 145.667 42.350,145.592 42.500,145.500 42.500 C 145.408 42.500,145.333 42.469,145.333 42.430 C 145.333 42.392,145.288 42.242,145.232 42.097 C 145.166 41.924,145.223 41.833,145.399 41.833 C 145.556 41.833,145.667 41.972,145.667 42.167 M110.672 44.324 C 110.576 44.502,110.412 44.701,110.307 44.766 C 110.178 44.846,110.160 44.808,110.250 44.651 C 110.608 44.031,110.985 43.739,110.672 44.324 M250.571 46.056 C 250.511 46.254,250.302 46.592,250.106 46.806 L 249.750 47.195 250.216 47.596 C 250.473 47.817,250.885 48.043,251.133 48.099 C 252.287 48.360,252.500 48.541,252.500 49.265 C 252.500 49.737,252.603 50.042,252.833 50.250 C 253.052 50.448,253.167 50.763,253.167 51.167 C 253.167 51.570,253.052 51.885,252.833 52.083 C 252.359 52.513,252.393 53.130,252.896 53.197 C 253.230 53.242,253.270 53.308,253.152 53.622 C 252.986 54.066,252.500 53.962,252.500 53.482 C 252.500 53.018,251.808 53.078,251.333 53.583 C 251.118 53.813,250.800 54.000,250.627 54.000 C 250.142 54.000,249.666 54.313,249.505 54.737 C 249.379 55.069,249.203 55.136,248.200 55.235 C 247.563 55.298,246.901 55.456,246.729 55.586 C 246.490 55.767,245.787 55.824,243.734 55.828 C 241.316 55.833,241.023 55.864,240.766 56.149 C 240.543 56.395,240.528 56.485,240.698 56.553 C 240.818 56.601,240.673 56.646,240.375 56.654 L 239.833 56.667 239.833 51.250 L 239.833 45.833 244.375 45.795 C 246.873 45.774,249.268 45.758,249.696 45.760 C 250.143 45.762,250.435 45.696,250.379 45.606 C 250.325 45.519,250.371 45.504,250.481 45.572 C 250.598 45.644,250.635 45.844,250.571 46.056 M136.748 55.170 C 136.703 55.243,136.517 55.263,136.335 55.215 C 136.153 55.168,136.040 55.069,136.085 54.997 C 136.130 54.924,136.316 54.904,136.498 54.951 C 136.681 54.999,136.793 55.097,136.748 55.170 M205.909 55.178 C 205.808 55.342,205.333 55.194,205.333 54.998 C 205.333 54.924,205.482 54.904,205.665 54.951 C 205.847 54.999,205.957 55.101,205.909 55.178 M326.571 54.983 C 326.848 55.091,326.855 55.123,326.625 55.211 C 326.478 55.267,326.268 55.205,326.158 55.073 C 325.942 54.813,326.068 54.785,326.571 54.983 M207.000 56.356 C 207.000 56.424,206.925 56.527,206.833 56.583 C 206.742 56.640,206.667 56.565,206.667 56.417 C 206.667 56.255,206.589 56.195,206.474 56.266 C 206.359 56.337,206.327 56.312,206.394 56.204 C 206.455 56.104,206.429 55.976,206.336 55.918 C 206.243 55.861,206.167 55.654,206.167 55.458 C 206.167 55.150,206.223 55.178,206.583 55.667 C 206.813 55.977,207.000 56.287,207.000 56.356 M280.130 56.526 C 279.808 56.731,279.714 56.697,279.622 56.345 C 279.547 56.060,279.583 56.045,279.940 56.208 C 280.234 56.342,280.285 56.428,280.130 56.526 M116.443 57.915 C 116.225 58.385,115.952 58.491,116.118 58.042 C 116.205 57.807,116.470 57.516,116.609 57.503 C 116.624 57.501,116.549 57.687,116.443 57.915 M114.765 59.434 C 114.894 59.384,115.000 59.416,115.000 59.505 C 115.000 59.734,114.609 59.706,114.342 59.458 C 114.219 59.344,114.161 59.329,114.215 59.425 C 114.268 59.521,114.242 59.708,114.158 59.841 C 114.058 59.999,114.004 60.013,114.003 59.880 C 114.001 59.769,113.904 59.714,113.786 59.759 C 113.654 59.810,113.561 59.696,113.543 59.465 C 113.522 59.190,113.554 59.151,113.659 59.321 C 113.779 59.514,113.855 59.502,114.110 59.247 C 114.398 58.959,114.420 58.958,114.473 59.232 C 114.506 59.405,114.625 59.488,114.765 59.434 M293.398 60.697 C 293.465 60.589,293.609 60.501,293.718 60.503 C 293.862 60.504,293.858 60.542,293.706 60.639 C 293.590 60.713,293.357 61.044,293.188 61.374 L 292.881 61.976 293.259 61.729 C 293.809 61.368,293.927 61.735,293.396 62.153 C 293.153 62.344,292.871 62.499,292.769 62.497 C 292.663 62.496,292.680 62.434,292.809 62.352 C 292.975 62.247,292.984 62.176,292.843 62.089 C 292.698 62.000,292.698 61.913,292.846 61.735 C 292.953 61.606,292.975 61.499,292.895 61.497 C 292.815 61.496,292.862 61.422,293.000 61.333 C 293.141 61.242,293.166 61.171,293.056 61.169 C 292.950 61.168,292.888 61.035,292.919 60.875 C 292.949 60.715,292.986 60.508,292.999 60.417 C 293.012 60.325,293.080 60.395,293.150 60.572 C 293.236 60.794,293.314 60.833,293.398 60.697 M261.833 60.833 C 261.833 61.049,261.722 61.167,261.519 61.167 C 261.346 61.167,261.167 61.018,261.118 60.833 C 261.049 60.568,261.113 60.500,261.432 60.500 C 261.722 60.500,261.833 60.592,261.833 60.833 M270.583 60.667 C 270.705 60.864,270.542 60.864,270.083 60.667 C 269.762 60.529,269.763 60.523,270.115 60.512 C 270.316 60.505,270.527 60.575,270.583 60.667 M330.757 61.734 C 331.056 61.953,331.047 61.963,330.619 61.881 C 330.368 61.833,330.121 61.727,330.071 61.647 C 329.928 61.415,330.403 61.476,330.757 61.734 M109.132 63.062 C 109.105 63.074,108.872 63.270,108.614 63.497 L 108.145 63.912 108.312 63.473 C 108.404 63.232,108.443 62.999,108.400 62.956 C 108.357 62.913,108.515 62.914,108.751 62.959 C 108.987 63.005,109.159 63.051,109.132 63.062 M353.179 63.226 C 353.186 63.331,353.215 63.530,353.242 63.667 C 353.269 63.805,353.174 64.028,353.031 64.162 C 352.800 64.378,352.783 64.373,352.880 64.120 C 352.966 63.894,352.893 63.830,352.536 63.817 L 352.083 63.800 352.500 63.667 C 352.778 63.578,352.819 63.528,352.625 63.517 C 352.292 63.498,352.227 63.065,352.542 62.955 C 352.829 62.855,353.164 62.997,353.179 63.226 M375.000 63.020 C 375.000 63.158,375.059 63.158,375.224 63.022 C 375.514 62.781,375.719 62.986,375.478 63.276 C 375.333 63.451,375.369 63.500,375.646 63.500 C 375.841 63.500,376.000 63.575,376.000 63.667 C 376.000 63.758,375.856 63.833,375.680 63.833 C 375.504 63.833,375.223 63.878,375.055 63.932 C 374.838 64.003,374.812 63.987,374.966 63.876 C 375.140 63.751,375.132 63.679,374.925 63.507 C 374.714 63.332,374.667 63.332,374.667 63.507 C 374.667 63.626,374.632 63.688,374.590 63.645 C 374.467 63.523,374.691 62.833,374.853 62.833 C 374.934 62.833,375.000 62.918,375.000 63.020 M168.179 63.208 C 168.186 63.323,168.216 63.539,168.245 63.688 C 168.282 63.875,168.208 63.936,168.008 63.884 C 167.803 63.830,167.740 63.690,167.795 63.404 C 167.875 62.985,168.157 62.842,168.179 63.208 M82.464 63.370 C 81.932 63.551,81.684 64.409,81.995 64.990 C 82.343 65.640,83.548 65.814,83.970 65.275 C 84.224 64.952,84.375 64.121,84.155 64.257 C 84.026 64.337,83.998 64.270,84.068 64.049 C 84.138 63.829,84.094 63.722,83.934 63.722 C 83.796 63.722,83.720 63.846,83.753 64.018 C 83.793 64.223,83.734 64.285,83.562 64.219 C 83.417 64.163,83.356 64.014,83.416 63.859 C 83.472 63.713,83.461 63.650,83.392 63.719 C 83.324 63.787,83.188 63.702,83.092 63.530 C 82.949 63.273,82.833 63.244,82.464 63.370 M274.497 63.542 C 274.495 63.845,274.464 63.869,274.333 63.667 C 274.125 63.344,274.125 63.167,274.333 63.167 C 274.425 63.167,274.499 63.335,274.497 63.542 M396.904 63.913 C 396.728 64.047,396.658 64.157,396.750 64.159 C 396.998 64.163,397.421 63.865,397.316 63.761 C 397.266 63.711,397.081 63.779,396.904 63.913 M288.333 64.508 C 288.333 64.583,288.111 64.802,287.840 64.995 L 287.346 65.347 287.581 64.894 C 287.710 64.645,287.783 64.386,287.741 64.319 C 287.700 64.252,287.816 64.237,288.000 64.285 C 288.183 64.333,288.333 64.433,288.333 64.508 M205.422 64.843 L 205.686 65.353 205.273 65.083 C 204.779 64.760,204.577 64.333,204.918 64.333 C 205.050 64.333,205.277 64.563,205.422 64.843 M65.799 71.104 C 65.750 72.203,65.748 72.208,65.168 72.395 C 64.711 72.543,64.568 72.691,64.500 73.083 C 64.428 73.505,64.323 73.596,63.832 73.667 C 63.315 73.741,63.241 73.815,63.167 74.333 C 63.092 74.859,63.026 74.922,62.501 74.972 C 62.181 75.002,61.864 75.115,61.796 75.222 C 61.231 76.110,63.221 76.365,63.868 75.488 C 64.078 75.203,64.489 74.870,64.782 74.748 C 65.200 74.573,65.355 74.372,65.507 73.808 C 65.613 73.414,65.843 72.991,66.017 72.869 C 66.798 72.322,67.100 70.793,66.529 70.276 C 65.990 69.788,65.851 69.946,65.799 71.104 M0.000 73.667 C 0.000 74.198,0.061 74.333,0.300 74.333 C 0.684 74.333,1.000 74.649,1.000 75.033 C 1.000 75.434,1.585 76.000,2.000 76.000 C 2.347 76.000,3.000 75.456,3.000 75.167 C 3.000 75.075,2.775 75.000,2.500 75.000 C 2.066 75.000,2.000 74.940,1.999 74.542 C 1.997 74.093,1.454 73.667,0.883 73.667 C 0.764 73.667,0.667 73.517,0.667 73.333 C 0.667 73.111,0.556 73.000,0.333 73.000 C 0.056 73.000,0.000 73.111,0.000 73.667 M3.664 76.534 C 4.218 77.484,5.089 77.586,5.471 76.747 L 5.660 76.333 4.696 76.333 C 4.152 76.333,3.640 76.243,3.519 76.125 C 3.401 76.010,3.466 76.195,3.664 76.534 M60.542 76.290 C 59.423 76.354,59.307 76.473,59.844 77.010 C 60.301 77.468,60.787 77.367,61.293 76.708 C 61.522 76.410,61.681 76.181,61.646 76.199 C 61.612 76.216,61.115 76.258,60.542 76.290 M7.409 76.821 C 7.461 77.135,7.546 77.435,7.599 77.488 C 7.774 77.663,56.995 77.681,57.322 77.506 C 57.739 77.283,57.881 76.333,57.497 76.333 C 57.344 76.333,57.083 76.483,56.917 76.667 C 56.711 76.894,56.425 76.993,56.016 76.976 L 55.417 76.953 56.070 76.851 C 56.430 76.796,56.754 76.657,56.792 76.544 C 56.845 76.381,51.883 76.346,32.971 76.376 L 9.083 76.414 32.833 76.499 L 56.583 76.585 32.658 76.626 C 13.708 76.658,8.685 76.623,8.500 76.458 C 8.302 76.282,8.299 76.293,8.479 76.532 C 8.596 76.688,8.968 76.844,9.304 76.879 L 9.917 76.944 9.215 76.972 C 8.685 76.993,8.430 76.911,8.175 76.637 C 7.989 76.438,7.791 76.321,7.734 76.377 C 7.678 76.434,7.823 76.672,8.058 76.907 L 8.485 77.333 32.583 77.333 L 56.682 77.333 57.091 76.924 C 57.357 76.658,57.500 76.596,57.500 76.748 C 57.500 77.527,58.410 77.500,32.619 77.500 C 7.189 77.500,8.053 77.527,7.577 76.704 L 7.315 76.250 7.409 76.821 M43.529 76.958 C 37.449 76.983,27.549 76.983,21.529 76.958 C 15.509 76.934,20.483 76.914,32.583 76.914 C 44.683 76.914,49.609 76.934,43.529 76.958  M -25 0 L -5 0 L -5 20 L -25 20 Z M 405 0 L 425 0 L 425 20 L 405 20 Z" stroke="none" fill="#242424" fill-rule="evenodd" transform="translate(490,145)"></path></g></svg>